<svg width="255" height="56" viewBox="0 0 255 56" fill="none" xmlns="http://www.w3.org/2000/svg">
<rect width="255" height="56" rx="8" fill="#00CC6A"/>
<path d="M69.103 23.878V34H67.444V27.462C67.444 27.2007 67.458 26.9183 67.486 26.615L64.427 32.362C64.2823 32.6373 64.0607 32.775 63.762 32.775H63.496C63.1973 32.775 62.9757 32.6373 62.831 32.362L59.737 26.594C59.751 26.748 59.7627 26.8997 59.772 27.049C59.7813 27.1983 59.786 27.336 59.786 27.462V34H58.127V23.878H59.548C59.632 23.878 59.7043 23.8803 59.765 23.885C59.8257 23.8897 59.8793 23.9013 59.926 23.92C59.9773 23.9387 60.0217 23.969 60.059 24.011C60.101 24.053 60.1407 24.109 60.178 24.179L63.209 29.8C63.2883 29.9493 63.3607 30.1033 63.426 30.262C63.496 30.4207 63.5637 30.584 63.629 30.752C63.6943 30.5793 63.762 30.4137 63.832 30.255C63.902 30.0917 63.9767 29.9353 64.056 29.786L67.045 24.179C67.0823 24.109 67.122 24.053 67.164 24.011C67.206 23.969 67.2503 23.9387 67.297 23.92C67.3483 23.9013 67.4043 23.8897 67.465 23.885C67.5257 23.8803 67.598 23.878 67.682 23.878H69.103ZM74.8796 30.934C74.3803 30.9573 73.9603 31.0017 73.6196 31.067C73.279 31.1277 73.006 31.207 72.8006 31.305C72.5953 31.403 72.4483 31.5173 72.3596 31.648C72.271 31.7787 72.2266 31.921 72.2266 32.075C72.2266 32.3783 72.3153 32.5953 72.4926 32.726C72.6746 32.8567 72.9103 32.922 73.1996 32.922C73.5543 32.922 73.86 32.859 74.1166 32.733C74.378 32.6023 74.6323 32.4063 74.8796 32.145V30.934ZM70.9176 27.819C71.7436 27.063 72.7376 26.685 73.8996 26.685C74.3196 26.685 74.6953 26.755 75.0266 26.895C75.358 27.0303 75.638 27.2217 75.8666 27.469C76.0953 27.7117 76.268 28.0033 76.3846 28.344C76.506 28.6847 76.5666 29.058 76.5666 29.464V34H75.7826C75.6193 34 75.4933 33.9767 75.4046 33.93C75.316 33.8787 75.246 33.7783 75.1946 33.629L75.0406 33.111C74.8586 33.2743 74.6813 33.419 74.5086 33.545C74.336 33.6663 74.1563 33.769 73.9696 33.853C73.783 33.937 73.5823 34 73.3676 34.042C73.1576 34.0887 72.9243 34.112 72.6676 34.112C72.3643 34.112 72.0843 34.0723 71.8276 33.993C71.571 33.909 71.3493 33.7853 71.1626 33.622C70.976 33.4587 70.8313 33.2557 70.7286 33.013C70.626 32.7703 70.5746 32.488 70.5746 32.166C70.5746 31.984 70.605 31.8043 70.6656 31.627C70.7263 31.445 70.8243 31.2723 70.9596 31.109C71.0996 30.9457 71.2793 30.7917 71.4986 30.647C71.718 30.5023 71.9863 30.3763 72.3036 30.269C72.6256 30.1617 72.999 30.0753 73.4236 30.01C73.8483 29.94 74.3336 29.898 74.8796 29.884V29.464C74.8796 28.9833 74.777 28.6287 74.5716 28.4C74.3663 28.1667 74.07 28.05 73.6826 28.05C73.4026 28.05 73.1693 28.0827 72.9826 28.148C72.8006 28.2133 72.6396 28.288 72.4996 28.372C72.3596 28.4513 72.2313 28.5237 72.1146 28.589C72.0026 28.6543 71.8766 28.687 71.7366 28.687C71.6153 28.687 71.5126 28.6567 71.4286 28.596C71.3446 28.5307 71.277 28.456 71.2256 28.372L70.9176 27.819ZM80.099 23.598V29.555H80.421C80.5377 29.555 80.6287 29.541 80.694 29.513C80.764 29.4803 80.834 29.4173 80.904 29.324L82.689 27.119C82.7637 27.021 82.8453 26.9463 82.934 26.895C83.0273 26.8437 83.1463 26.818 83.291 26.818H84.873L82.64 29.485C82.4813 29.695 82.3087 29.856 82.122 29.968C82.22 30.038 82.3063 30.1197 82.381 30.213C82.4603 30.3063 82.535 30.4067 82.605 30.514L84.999 34H83.438C83.3027 34 83.186 33.979 83.088 33.937C82.99 33.8903 82.9083 33.8087 82.843 33.692L81.009 30.969C80.9437 30.8617 80.876 30.7917 80.806 30.759C80.736 30.7263 80.631 30.71 80.491 30.71H80.099V34H78.37V23.598H80.099ZM90.2814 29.583C90.2814 29.359 90.2487 29.149 90.1834 28.953C90.1227 28.7523 90.0294 28.5773 89.9034 28.428C89.7774 28.2787 89.6164 28.162 89.4204 28.078C89.2291 27.9893 89.0051 27.945 88.7484 27.945C88.2491 27.945 87.8547 28.0873 87.5654 28.372C87.2807 28.6567 87.0987 29.0603 87.0194 29.583H90.2814ZM86.9844 30.626C87.0124 30.9947 87.0777 31.3143 87.1804 31.585C87.2831 31.851 87.4184 32.0727 87.5864 32.25C87.7544 32.4227 87.9527 32.5533 88.1814 32.642C88.4147 32.726 88.6714 32.768 88.9514 32.768C89.2314 32.768 89.4717 32.7353 89.6724 32.67C89.8777 32.6047 90.0551 32.5323 90.2044 32.453C90.3584 32.3737 90.4914 32.3013 90.6034 32.236C90.7201 32.1707 90.8321 32.138 90.9394 32.138C91.0841 32.138 91.1914 32.1917 91.2614 32.299L91.7584 32.929C91.5671 33.153 91.3524 33.342 91.1144 33.496C90.8764 33.6453 90.6267 33.7667 90.3654 33.86C90.1087 33.9487 89.8451 34.0117 89.5744 34.049C89.3084 34.0863 89.0494 34.105 88.7974 34.105C88.2981 34.105 87.8337 34.0233 87.4044 33.86C86.9751 33.692 86.6017 33.447 86.2844 33.125C85.9671 32.7983 85.7174 32.397 85.5354 31.921C85.3534 31.4403 85.2624 30.885 85.2624 30.255C85.2624 29.765 85.3417 29.3053 85.5004 28.876C85.6591 28.442 85.8854 28.0663 86.1794 27.749C86.4781 27.427 86.8397 27.1727 87.2644 26.986C87.6937 26.7993 88.1767 26.706 88.7134 26.706C89.1661 26.706 89.5837 26.7783 89.9664 26.923C90.3491 27.0677 90.6781 27.28 90.9534 27.56C91.2287 27.8353 91.4434 28.176 91.5974 28.582C91.7561 28.9833 91.8354 29.443 91.8354 29.961C91.8354 30.2223 91.8074 30.3997 91.7514 30.493C91.6954 30.5817 91.5881 30.626 91.4294 30.626H86.9844ZM100.681 30.934C100.182 30.9573 99.7619 31.0017 99.4212 31.067C99.0805 31.1277 98.8075 31.207 98.6022 31.305C98.3969 31.403 98.2499 31.5173 98.1612 31.648C98.0725 31.7787 98.0282 31.921 98.0282 32.075C98.0282 32.3783 98.1169 32.5953 98.2942 32.726C98.4762 32.8567 98.7119 32.922 99.0012 32.922C99.3559 32.922 99.6615 32.859 99.9182 32.733C100.18 32.6023 100.434 32.4063 100.681 32.145V30.934ZM96.7192 27.819C97.5452 27.063 98.5392 26.685 99.7012 26.685C100.121 26.685 100.497 26.755 100.828 26.895C101.16 27.0303 101.44 27.2217 101.668 27.469C101.897 27.7117 102.07 28.0033 102.186 28.344C102.308 28.6847 102.368 29.058 102.368 29.464V34H101.584C101.421 34 101.295 33.9767 101.206 33.93C101.118 33.8787 101.048 33.7783 100.996 33.629L100.842 33.111C100.66 33.2743 100.483 33.419 100.31 33.545C100.138 33.6663 99.9579 33.769 99.7712 33.853C99.5845 33.937 99.3839 34 99.1692 34.042C98.9592 34.0887 98.7259 34.112 98.4692 34.112C98.1659 34.112 97.8859 34.0723 97.6292 33.993C97.3725 33.909 97.1509 33.7853 96.9642 33.622C96.7775 33.4587 96.6329 33.2557 96.5302 33.013C96.4275 32.7703 96.3762 32.488 96.3762 32.166C96.3762 31.984 96.4065 31.8043 96.4672 31.627C96.5279 31.445 96.6259 31.2723 96.7612 31.109C96.9012 30.9457 97.0809 30.7917 97.3002 30.647C97.5195 30.5023 97.7879 30.3763 98.1052 30.269C98.4272 30.1617 98.8005 30.0753 99.2252 30.01C99.6499 29.94 100.135 29.898 100.681 29.884V29.464C100.681 28.9833 100.579 28.6287 100.373 28.4C100.168 28.1667 99.8715 28.05 99.4842 28.05C99.2042 28.05 98.9709 28.0827 98.7842 28.148C98.6022 28.2133 98.4412 28.288 98.3012 28.372C98.1612 28.4513 98.0329 28.5237 97.9162 28.589C97.8042 28.6543 97.6782 28.687 97.5382 28.687C97.4169 28.687 97.3142 28.6567 97.2302 28.596C97.1462 28.5307 97.0785 28.456 97.0272 28.372L96.7192 27.819ZM105.789 27.7C105.933 27.5553 106.085 27.4223 106.244 27.301C106.407 27.175 106.577 27.07 106.755 26.986C106.937 26.8973 107.13 26.8297 107.336 26.783C107.541 26.7317 107.765 26.706 108.008 26.706C108.4 26.706 108.747 26.7737 109.051 26.909C109.354 27.0397 109.606 27.2263 109.807 27.469C110.012 27.707 110.166 27.994 110.269 28.33C110.376 28.6613 110.43 29.0277 110.43 29.429V34H108.701V29.429C108.701 28.9903 108.6 28.652 108.4 28.414C108.199 28.1713 107.893 28.05 107.483 28.05C107.184 28.05 106.904 28.1177 106.643 28.253C106.381 28.3883 106.134 28.5727 105.901 28.806V34H104.172V26.818H105.229C105.453 26.818 105.6 26.923 105.67 27.133L105.789 27.7ZM120.984 30.178L119.752 26.811C119.692 26.6617 119.629 26.4843 119.563 26.279C119.498 26.0737 119.433 25.852 119.367 25.614C119.307 25.852 119.244 26.076 119.178 26.286C119.113 26.4913 119.05 26.671 118.989 26.825L117.764 30.178H120.984ZM124.309 34H122.853C122.69 34 122.557 33.9603 122.454 33.881C122.352 33.797 122.275 33.6943 122.223 33.573L121.467 31.508H117.274L116.518 33.573C116.481 33.6803 116.409 33.7783 116.301 33.867C116.194 33.9557 116.061 34 115.902 34H114.432L118.415 23.878H120.333L124.309 34ZM126.974 32.138C127.17 32.376 127.383 32.544 127.611 32.642C127.845 32.74 128.097 32.789 128.367 32.789C128.629 32.789 128.864 32.74 129.074 32.642C129.284 32.544 129.462 32.3947 129.606 32.194C129.756 31.9933 129.87 31.7413 129.949 31.438C130.029 31.13 130.068 30.7683 130.068 30.353C130.068 29.933 130.033 29.5783 129.963 29.289C129.898 28.995 129.802 28.757 129.676 28.575C129.55 28.393 129.396 28.26 129.214 28.176C129.037 28.092 128.834 28.05 128.605 28.05C128.246 28.05 127.94 28.127 127.688 28.281C127.436 28.4303 127.198 28.6427 126.974 28.918V32.138ZM126.883 27.798C127.177 27.4667 127.511 27.1983 127.884 26.993C128.258 26.7877 128.696 26.685 129.2 26.685C129.592 26.685 129.949 26.7667 130.271 26.93C130.598 27.0933 130.878 27.3313 131.111 27.644C131.349 27.952 131.531 28.3347 131.657 28.792C131.788 29.2447 131.853 29.765 131.853 30.353C131.853 30.8897 131.781 31.3867 131.636 31.844C131.492 32.3013 131.284 32.698 131.013 33.034C130.747 33.37 130.423 33.6337 130.04 33.825C129.662 34.0117 129.238 34.105 128.766 34.105C128.365 34.105 128.022 34.0443 127.737 33.923C127.453 33.797 127.198 33.6243 126.974 33.405V36.345H125.245V26.818H126.302C126.526 26.818 126.673 26.923 126.743 27.133L126.883 27.798ZM135.106 32.138C135.302 32.376 135.515 32.544 135.743 32.642C135.977 32.74 136.229 32.789 136.499 32.789C136.761 32.789 136.996 32.74 137.206 32.642C137.416 32.544 137.594 32.3947 137.738 32.194C137.888 31.9933 138.002 31.7413 138.081 31.438C138.161 31.13 138.2 30.7683 138.2 30.353C138.2 29.933 138.165 29.5783 138.095 29.289C138.03 28.995 137.934 28.757 137.808 28.575C137.682 28.393 137.528 28.26 137.346 28.176C137.169 28.092 136.966 28.05 136.737 28.05C136.378 28.05 136.072 28.127 135.82 28.281C135.568 28.4303 135.33 28.6427 135.106 28.918V32.138ZM135.015 27.798C135.309 27.4667 135.643 27.1983 136.016 26.993C136.39 26.7877 136.828 26.685 137.332 26.685C137.724 26.685 138.081 26.7667 138.403 26.93C138.73 27.0933 139.01 27.3313 139.243 27.644C139.481 27.952 139.663 28.3347 139.789 28.792C139.92 29.2447 139.985 29.765 139.985 30.353C139.985 30.8897 139.913 31.3867 139.768 31.844C139.624 32.3013 139.416 32.698 139.145 33.034C138.879 33.37 138.555 33.6337 138.172 33.825C137.794 34.0117 137.37 34.105 136.898 34.105C136.497 34.105 136.154 34.0443 135.869 33.923C135.585 33.797 135.33 33.6243 135.106 33.405V36.345H133.377V26.818H134.434C134.658 26.818 134.805 26.923 134.875 27.133L135.015 27.798ZM144.687 26.706C145.219 26.706 145.702 26.7923 146.136 26.965C146.575 27.1377 146.948 27.3827 147.256 27.7C147.569 28.0173 147.809 28.4047 147.977 28.862C148.145 29.3193 148.229 29.8303 148.229 30.395C148.229 30.9643 148.145 31.4777 147.977 31.935C147.809 32.3923 147.569 32.782 147.256 33.104C146.948 33.426 146.575 33.6733 146.136 33.846C145.702 34.0187 145.219 34.105 144.687 34.105C144.151 34.105 143.663 34.0187 143.224 33.846C142.786 33.6733 142.41 33.426 142.097 33.104C141.789 32.782 141.549 32.3923 141.376 31.935C141.208 31.4777 141.124 30.9643 141.124 30.395C141.124 29.8303 141.208 29.3193 141.376 28.862C141.549 28.4047 141.789 28.0173 142.097 27.7C142.41 27.3827 142.786 27.1377 143.224 26.965C143.663 26.7923 144.151 26.706 144.687 26.706ZM144.687 32.775C145.285 32.775 145.726 32.5743 146.01 32.173C146.3 31.7717 146.444 31.1837 146.444 30.409C146.444 29.6343 146.3 29.044 146.01 28.638C145.726 28.232 145.285 28.029 144.687 28.029C144.081 28.029 143.63 28.2343 143.336 28.645C143.047 29.051 142.902 29.639 142.902 30.409C142.902 31.179 143.047 31.767 143.336 32.173C143.63 32.5743 144.081 32.775 144.687 32.775ZM151.516 26.818V34H149.78V26.818H151.516ZM151.754 24.725C151.754 24.8743 151.723 25.0143 151.663 25.145C151.602 25.2757 151.52 25.39 151.418 25.488C151.32 25.586 151.203 25.6653 151.068 25.726C150.932 25.782 150.788 25.81 150.634 25.81C150.484 25.81 150.342 25.782 150.207 25.726C150.076 25.6653 149.962 25.586 149.864 25.488C149.766 25.39 149.686 25.2757 149.626 25.145C149.57 25.0143 149.542 24.8743 149.542 24.725C149.542 24.571 149.57 24.4263 149.626 24.291C149.686 24.1557 149.766 24.039 149.864 23.941C149.962 23.843 150.076 23.766 150.207 23.71C150.342 23.6493 150.484 23.619 150.634 23.619C150.788 23.619 150.932 23.6493 151.068 23.71C151.203 23.766 151.32 23.843 151.418 23.941C151.52 24.039 151.602 24.1557 151.663 24.291C151.723 24.4263 151.754 24.571 151.754 24.725ZM155.07 27.7C155.215 27.5553 155.367 27.4223 155.525 27.301C155.689 27.175 155.859 27.07 156.036 26.986C156.218 26.8973 156.412 26.8297 156.617 26.783C156.823 26.7317 157.047 26.706 157.289 26.706C157.681 26.706 158.029 26.7737 158.332 26.909C158.636 27.0397 158.888 27.2263 159.088 27.469C159.294 27.707 159.448 27.994 159.55 28.33C159.658 28.6613 159.711 29.0277 159.711 29.429V34H157.982V29.429C157.982 28.9903 157.882 28.652 157.681 28.414C157.481 28.1713 157.175 28.05 156.764 28.05C156.466 28.05 156.186 28.1177 155.924 28.253C155.663 28.3883 155.416 28.5727 155.182 28.806V34H153.453V26.818H154.51C154.734 26.818 154.881 26.923 154.951 27.133L155.07 27.7ZM163.829 34.112C163.204 34.112 162.723 33.937 162.387 33.587C162.056 33.2323 161.89 32.7447 161.89 32.124V28.113H161.155C161.062 28.113 160.982 28.0827 160.917 28.022C160.852 27.9613 160.819 27.8703 160.819 27.749V27.063L161.974 26.874L162.338 24.914C162.361 24.8207 162.406 24.7483 162.471 24.697C162.536 24.6457 162.62 24.62 162.723 24.62H163.619V26.881H165.537V28.113H163.619V32.005C163.619 32.229 163.673 32.404 163.78 32.53C163.892 32.656 164.044 32.719 164.235 32.719C164.342 32.719 164.431 32.7073 164.501 32.684C164.576 32.656 164.639 32.628 164.69 32.6C164.746 32.572 164.795 32.5463 164.837 32.523C164.879 32.495 164.921 32.481 164.963 32.481C165.014 32.481 165.056 32.495 165.089 32.523C165.122 32.5463 165.157 32.5837 165.194 32.635L165.712 33.475C165.46 33.685 165.171 33.8437 164.844 33.951C164.517 34.0583 164.179 34.112 163.829 34.112ZM166.819 34V26.818H167.876C168.1 26.818 168.247 26.923 168.317 27.133L168.429 27.665C168.555 27.525 168.686 27.3967 168.821 27.28C168.961 27.1633 169.108 27.063 169.262 26.979C169.421 26.895 169.589 26.8297 169.766 26.783C169.948 26.7317 170.146 26.706 170.361 26.706C170.814 26.706 171.185 26.8297 171.474 27.077C171.768 27.3197 171.987 27.644 172.132 28.05C172.244 27.812 172.384 27.609 172.552 27.441C172.72 27.2683 172.904 27.1283 173.105 27.021C173.306 26.9137 173.518 26.8343 173.742 26.783C173.971 26.7317 174.199 26.706 174.428 26.706C174.825 26.706 175.177 26.7667 175.485 26.888C175.793 27.0093 176.052 27.1867 176.262 27.42C176.472 27.6533 176.631 27.938 176.738 28.274C176.85 28.61 176.906 28.995 176.906 29.429V34H175.177V29.429C175.177 28.9717 175.077 28.6287 174.876 28.4C174.675 28.1667 174.381 28.05 173.994 28.05C173.817 28.05 173.651 28.0803 173.497 28.141C173.348 28.2017 173.215 28.2903 173.098 28.407C172.986 28.519 172.897 28.6613 172.832 28.834C172.767 29.0067 172.734 29.205 172.734 29.429V34H170.998V29.429C170.998 28.9483 170.9 28.5983 170.704 28.379C170.513 28.1597 170.23 28.05 169.857 28.05C169.605 28.05 169.369 28.113 169.15 28.239C168.935 28.3603 168.735 28.5283 168.548 28.743V34H166.819ZM183.351 29.583C183.351 29.359 183.319 29.149 183.253 28.953C183.193 28.7523 183.099 28.5773 182.973 28.428C182.847 28.2787 182.686 28.162 182.49 28.078C182.299 27.9893 182.075 27.945 181.818 27.945C181.319 27.945 180.925 28.0873 180.635 28.372C180.351 28.6567 180.169 29.0603 180.089 29.583H183.351ZM180.054 30.626C180.082 30.9947 180.148 31.3143 180.25 31.585C180.353 31.851 180.488 32.0727 180.656 32.25C180.824 32.4227 181.023 32.5533 181.251 32.642C181.485 32.726 181.741 32.768 182.021 32.768C182.301 32.768 182.542 32.7353 182.742 32.67C182.948 32.6047 183.125 32.5323 183.274 32.453C183.428 32.3737 183.561 32.3013 183.673 32.236C183.79 32.1707 183.902 32.138 184.009 32.138C184.154 32.138 184.261 32.1917 184.331 32.299L184.828 32.929C184.637 33.153 184.422 33.342 184.184 33.496C183.946 33.6453 183.697 33.7667 183.435 33.86C183.179 33.9487 182.915 34.0117 182.644 34.049C182.378 34.0863 182.119 34.105 181.867 34.105C181.368 34.105 180.904 34.0233 180.474 33.86C180.045 33.692 179.672 33.447 179.354 33.125C179.037 32.7983 178.787 32.397 178.605 31.921C178.423 31.4403 178.332 30.885 178.332 30.255C178.332 29.765 178.412 29.3053 178.57 28.876C178.729 28.442 178.955 28.0663 179.249 27.749C179.548 27.427 179.91 27.1727 180.334 26.986C180.764 26.7993 181.247 26.706 181.783 26.706C182.236 26.706 182.654 26.7783 183.036 26.923C183.419 27.0677 183.748 27.28 184.023 27.56C184.299 27.8353 184.513 28.176 184.667 28.582C184.826 28.9833 184.905 29.443 184.905 29.961C184.905 30.2223 184.877 30.3997 184.821 30.493C184.765 30.5817 184.658 30.626 184.499 30.626H180.054ZM187.995 27.7C188.14 27.5553 188.291 27.4223 188.45 27.301C188.613 27.175 188.784 27.07 188.961 26.986C189.143 26.8973 189.337 26.8297 189.542 26.783C189.747 26.7317 189.971 26.706 190.214 26.706C190.606 26.706 190.954 26.7737 191.257 26.909C191.56 27.0397 191.812 27.2263 192.013 27.469C192.218 27.707 192.372 27.994 192.475 28.33C192.582 28.6613 192.636 29.0277 192.636 29.429V34H190.907V29.429C190.907 28.9903 190.807 28.652 190.606 28.414C190.405 28.1713 190.1 28.05 189.689 28.05C189.39 28.05 189.11 28.1177 188.849 28.253C188.588 28.3883 188.34 28.5727 188.107 28.806V34H186.378V26.818H187.435C187.659 26.818 187.806 26.923 187.876 27.133L187.995 27.7ZM196.753 34.112C196.128 34.112 195.647 33.937 195.311 33.587C194.98 33.2323 194.814 32.7447 194.814 32.124V28.113H194.079C193.986 28.113 193.907 28.0827 193.841 28.022C193.776 27.9613 193.743 27.8703 193.743 27.749V27.063L194.898 26.874L195.262 24.914C195.286 24.8207 195.33 24.7483 195.395 24.697C195.461 24.6457 195.545 24.62 195.647 24.62H196.543V26.881H198.461V28.113H196.543V32.005C196.543 32.229 196.597 32.404 196.704 32.53C196.816 32.656 196.968 32.719 197.159 32.719C197.267 32.719 197.355 32.7073 197.425 32.684C197.5 32.656 197.563 32.628 197.614 32.6C197.67 32.572 197.719 32.5463 197.761 32.523C197.803 32.495 197.845 32.481 197.887 32.481C197.939 32.481 197.981 32.495 198.013 32.523C198.046 32.5463 198.081 32.5837 198.118 32.635L198.636 33.475C198.384 33.685 198.095 33.8437 197.768 33.951C197.442 34.0583 197.103 34.112 196.753 34.112Z" fill="#F9F9FA"/>
</svg>
