<svg width="69" height="81" viewBox="0 0 69 81" fill="none" xmlns="http://www.w3.org/2000/svg">
<rect x="6" width="56" height="56" rx="8" fill="#4485FD"/>
<path d="M7.5712 73.224C7.6352 73.224 7.6932 73.25 7.7452 73.302L8.2012 73.8C7.8492 74.208 7.4212 74.526 6.9172 74.754C6.4172 74.982 5.8132 75.096 5.1052 75.096C4.4852 75.096 3.9232 74.99 3.4192 74.778C2.9152 74.562 2.4852 74.262 2.1292 73.878C1.7732 73.49 1.4972 73.026 1.3012 72.486C1.1052 71.946 1.0072 71.352 1.0072 70.704C1.0072 70.056 1.1112 69.462 1.3192 68.922C1.5312 68.382 1.8272 67.918 2.2072 67.53C2.5872 67.142 3.0412 66.842 3.5692 66.63C4.1012 66.414 4.6872 66.306 5.3272 66.306C5.9592 66.306 6.5032 66.404 6.9592 66.6C7.4192 66.796 7.8272 67.062 8.1832 67.398L7.8052 67.932C7.7772 67.972 7.7452 68.006 7.7092 68.034C7.6732 68.058 7.6212 68.07 7.5532 68.07C7.5012 68.07 7.4452 68.052 7.3852 68.016C7.3292 67.976 7.2612 67.928 7.1812 67.872C7.1012 67.816 7.0072 67.756 6.8992 67.692C6.7912 67.628 6.6632 67.568 6.5152 67.512C6.3672 67.456 6.1952 67.41 5.9992 67.374C5.8032 67.334 5.5772 67.314 5.3212 67.314C4.8612 67.314 4.4392 67.394 4.0552 67.554C3.6752 67.71 3.3472 67.934 3.0712 68.226C2.7952 68.518 2.5792 68.874 2.4232 69.294C2.2712 69.714 2.1952 70.184 2.1952 70.704C2.1952 71.24 2.2712 71.718 2.4232 72.138C2.5792 72.558 2.7892 72.914 3.0532 73.206C3.3212 73.494 3.6372 73.714 4.0012 73.866C4.3652 74.018 4.7572 74.094 5.1772 74.094C5.4332 74.094 5.6632 74.08 5.8672 74.052C6.0712 74.02 6.2592 73.972 6.4312 73.908C6.6072 73.844 6.7692 73.764 6.9172 73.668C7.0692 73.568 7.2212 73.45 7.3732 73.314C7.4412 73.254 7.5072 73.224 7.5712 73.224ZM12.03 68.826C12.474 68.826 12.874 68.9 13.23 69.048C13.59 69.196 13.894 69.406 14.142 69.678C14.394 69.95 14.586 70.28 14.718 70.668C14.854 71.052 14.922 71.482 14.922 71.958C14.922 72.438 14.854 72.87 14.718 73.254C14.586 73.638 14.394 73.966 14.142 74.238C13.894 74.51 13.59 74.72 13.23 74.868C12.874 75.012 12.474 75.084 12.03 75.084C11.586 75.084 11.184 75.012 10.824 74.868C10.468 74.72 10.164 74.51 9.91205 74.238C9.66005 73.966 9.46605 73.638 9.33005 73.254C9.19405 72.87 9.12605 72.438 9.12605 71.958C9.12605 71.482 9.19405 71.052 9.33005 70.668C9.46605 70.28 9.66005 69.95 9.91205 69.678C10.164 69.406 10.468 69.196 10.824 69.048C11.184 68.9 11.586 68.826 12.03 68.826ZM12.03 74.25C12.63 74.25 13.078 74.05 13.374 73.65C13.67 73.246 13.818 72.684 13.818 71.964C13.818 71.24 13.67 70.676 13.374 70.272C13.078 69.868 12.63 69.666 12.03 69.666C11.726 69.666 11.462 69.718 11.238 69.822C11.014 69.926 10.826 70.076 10.674 70.272C10.526 70.468 10.414 70.71 10.338 70.998C10.266 71.282 10.23 71.604 10.23 71.964C10.23 72.324 10.266 72.646 10.338 72.93C10.414 73.214 10.526 73.454 10.674 73.65C10.826 73.842 11.014 73.99 11.238 74.094C11.462 74.198 11.726 74.25 12.03 74.25ZM16.25 75V68.922H16.886C17.038 68.922 17.134 68.996 17.174 69.144L17.258 69.804C17.522 69.512 17.816 69.276 18.14 69.096C18.468 68.916 18.846 68.826 19.274 68.826C19.606 68.826 19.898 68.882 20.15 68.994C20.406 69.102 20.618 69.258 20.786 69.462C20.958 69.662 21.088 69.904 21.176 70.188C21.264 70.472 21.308 70.786 21.308 71.13V75H20.24V71.13C20.24 70.67 20.134 70.314 19.922 70.062C19.714 69.806 19.394 69.678 18.962 69.678C18.646 69.678 18.35 69.754 18.074 69.906C17.802 70.058 17.55 70.264 17.318 70.524V75H16.25ZM26.41 69.924C26.362 70.012 26.288 70.056 26.188 70.056C26.128 70.056 26.06 70.034 25.984 69.99C25.908 69.946 25.814 69.898 25.702 69.846C25.594 69.79 25.464 69.74 25.312 69.696C25.16 69.648 24.98 69.624 24.772 69.624C24.592 69.624 24.43 69.648 24.286 69.696C24.142 69.74 24.018 69.802 23.914 69.882C23.814 69.962 23.736 70.056 23.68 70.164C23.628 70.268 23.602 70.382 23.602 70.506C23.602 70.662 23.646 70.792 23.734 70.896C23.826 71 23.946 71.09 24.094 71.166C24.242 71.242 24.41 71.31 24.598 71.37C24.786 71.426 24.978 71.488 25.174 71.556C25.374 71.62 25.568 71.692 25.756 71.772C25.944 71.852 26.112 71.952 26.26 72.072C26.408 72.192 26.526 72.34 26.614 72.516C26.706 72.688 26.752 72.896 26.752 73.14C26.752 73.42 26.702 73.68 26.602 73.92C26.502 74.156 26.354 74.362 26.158 74.538C25.962 74.71 25.722 74.846 25.438 74.946C25.154 75.046 24.826 75.096 24.454 75.096C24.03 75.096 23.646 75.028 23.302 74.892C22.958 74.752 22.666 74.574 22.426 74.358L22.678 73.95C22.71 73.898 22.748 73.858 22.792 73.83C22.836 73.802 22.894 73.788 22.966 73.788C23.038 73.788 23.114 73.816 23.194 73.872C23.274 73.928 23.37 73.99 23.482 74.058C23.598 74.126 23.736 74.188 23.896 74.244C24.06 74.3 24.264 74.328 24.508 74.328C24.716 74.328 24.898 74.302 25.054 74.25C25.21 74.194 25.34 74.12 25.444 74.028C25.548 73.936 25.624 73.83 25.672 73.71C25.724 73.59 25.75 73.462 25.75 73.326C25.75 73.158 25.704 73.02 25.612 72.912C25.524 72.8 25.406 72.706 25.258 72.63C25.11 72.55 24.94 72.482 24.748 72.426C24.56 72.366 24.366 72.304 24.166 72.24C23.97 72.176 23.776 72.104 23.584 72.024C23.396 71.94 23.228 71.836 23.08 71.712C22.932 71.588 22.812 71.436 22.72 71.256C22.632 71.072 22.588 70.85 22.588 70.59C22.588 70.358 22.636 70.136 22.732 69.924C22.828 69.708 22.968 69.52 23.152 69.36C23.336 69.196 23.562 69.066 23.83 68.97C24.098 68.874 24.404 68.826 24.748 68.826C25.148 68.826 25.506 68.89 25.822 69.018C26.142 69.142 26.418 69.314 26.65 69.534L26.41 69.924ZM29.0691 68.922V72.798C29.0691 73.258 29.1751 73.614 29.3871 73.866C29.5991 74.118 29.9191 74.244 30.3471 74.244C30.6591 74.244 30.9531 74.17 31.2291 74.022C31.5051 73.874 31.7591 73.668 31.9911 73.404V68.922H33.0591V75H32.4231C32.2711 75 32.1751 74.926 32.1351 74.778L32.0511 74.124C31.7871 74.416 31.4911 74.652 31.1631 74.832C30.8351 75.008 30.4591 75.096 30.0351 75.096C29.7031 75.096 29.4091 75.042 29.1531 74.934C28.9011 74.822 28.6891 74.666 28.5171 74.466C28.3451 74.266 28.2151 74.024 28.1271 73.74C28.0431 73.456 28.0011 73.142 28.0011 72.798V68.922H29.0691ZM36.0131 66.162V75H34.9451V66.162H36.0131ZM39.7494 75.096C39.2694 75.096 38.8994 74.962 38.6394 74.694C38.3834 74.426 38.2554 74.04 38.2554 73.536V69.816H37.5234C37.4594 69.816 37.4054 69.798 37.3614 69.762C37.3174 69.722 37.2954 69.662 37.2954 69.582V69.156L38.2914 69.03L38.5374 67.152C38.5454 67.092 38.5714 67.044 38.6154 67.008C38.6594 66.968 38.7154 66.948 38.7834 66.948H39.3234V69.042H41.0634V69.816H39.3234V73.464C39.3234 73.72 39.3854 73.91 39.5094 74.034C39.6334 74.158 39.7934 74.22 39.9894 74.22C40.1014 74.22 40.1974 74.206 40.2774 74.178C40.3614 74.146 40.4334 74.112 40.4934 74.076C40.5534 74.04 40.6034 74.008 40.6434 73.98C40.6874 73.948 40.7254 73.932 40.7574 73.932C40.8134 73.932 40.8634 73.966 40.9074 74.034L41.2194 74.544C41.0354 74.716 40.8134 74.852 40.5534 74.952C40.2934 75.048 40.0254 75.096 39.7494 75.096ZM46.86 75H46.386C46.282 75 46.198 74.984 46.134 74.952C46.07 74.92 46.028 74.852 46.008 74.748L45.888 74.184C45.728 74.328 45.572 74.458 45.42 74.574C45.268 74.686 45.108 74.782 44.94 74.862C44.772 74.938 44.592 74.996 44.4 75.036C44.212 75.076 44.002 75.096 43.77 75.096C43.534 75.096 43.312 75.064 43.104 75C42.9 74.932 42.722 74.832 42.57 74.7C42.418 74.568 42.296 74.402 42.204 74.202C42.116 73.998 42.072 73.758 42.072 73.482C42.072 73.242 42.138 73.012 42.27 72.792C42.402 72.568 42.614 72.37 42.906 72.198C43.202 72.026 43.588 71.886 44.064 71.778C44.54 71.666 45.122 71.602 45.81 71.586V71.112C45.81 70.64 45.708 70.284 45.504 70.044C45.304 69.8 45.006 69.678 44.61 69.678C44.35 69.678 44.13 69.712 43.95 69.78C43.774 69.844 43.62 69.918 43.488 70.002C43.36 70.082 43.248 70.156 43.152 70.224C43.06 70.288 42.968 70.32 42.876 70.32C42.804 70.32 42.74 70.302 42.684 70.266C42.632 70.226 42.59 70.178 42.558 70.122L42.366 69.78C42.702 69.456 43.064 69.214 43.452 69.054C43.84 68.894 44.27 68.814 44.742 68.814C45.082 68.814 45.384 68.87 45.648 68.982C45.912 69.094 46.134 69.25 46.314 69.45C46.494 69.65 46.63 69.892 46.722 70.176C46.814 70.46 46.86 70.772 46.86 71.112V75ZM44.088 74.346C44.276 74.346 44.448 74.328 44.604 74.292C44.76 74.252 44.906 74.198 45.042 74.13C45.182 74.058 45.314 73.972 45.438 73.872C45.566 73.772 45.69 73.658 45.81 73.53V72.264C45.318 72.28 44.9 72.32 44.556 72.384C44.212 72.444 43.932 72.524 43.716 72.624C43.5 72.724 43.342 72.842 43.242 72.978C43.146 73.114 43.098 73.266 43.098 73.434C43.098 73.594 43.124 73.732 43.176 73.848C43.228 73.964 43.298 74.06 43.386 74.136C43.474 74.208 43.578 74.262 43.698 74.298C43.818 74.33 43.948 74.346 44.088 74.346ZM50.332 75.096C49.852 75.096 49.482 74.962 49.222 74.694C48.966 74.426 48.838 74.04 48.838 73.536V69.816H48.106C48.042 69.816 47.988 69.798 47.944 69.762C47.9 69.722 47.878 69.662 47.878 69.582V69.156L48.874 69.03L49.12 67.152C49.128 67.092 49.154 67.044 49.198 67.008C49.242 66.968 49.298 66.948 49.366 66.948H49.906V69.042H51.646V69.816H49.906V73.464C49.906 73.72 49.968 73.91 50.092 74.034C50.216 74.158 50.376 74.22 50.572 74.22C50.684 74.22 50.78 74.206 50.86 74.178C50.944 74.146 51.016 74.112 51.076 74.076C51.136 74.04 51.186 74.008 51.226 73.98C51.27 73.948 51.308 73.932 51.34 73.932C51.396 73.932 51.446 73.966 51.49 74.034L51.802 74.544C51.618 74.716 51.396 74.852 51.136 74.952C50.876 75.048 50.608 75.096 50.332 75.096ZM54.1665 68.922V75H53.0985V68.922H54.1665ZM54.4065 67.014C54.4065 67.118 54.3845 67.216 54.3405 67.308C54.3005 67.396 54.2445 67.476 54.1725 67.548C54.1045 67.616 54.0245 67.67 53.9325 67.71C53.8405 67.75 53.7425 67.77 53.6385 67.77C53.5345 67.77 53.4365 67.75 53.3445 67.71C53.2565 67.67 53.1765 67.616 53.1045 67.548C53.0365 67.476 52.9825 67.396 52.9425 67.308C52.9025 67.216 52.8825 67.118 52.8825 67.014C52.8825 66.91 52.9025 66.812 52.9425 66.72C52.9825 66.624 53.0365 66.542 53.1045 66.474C53.1765 66.402 53.2565 66.346 53.3445 66.306C53.4365 66.266 53.5345 66.246 53.6385 66.246C53.7425 66.246 53.8405 66.266 53.9325 66.306C54.0245 66.346 54.1045 66.402 54.1725 66.474C54.2445 66.542 54.3005 66.624 54.3405 66.72C54.3845 66.812 54.4065 66.91 54.4065 67.014ZM58.5209 68.826C58.9649 68.826 59.3649 68.9 59.7209 69.048C60.0809 69.196 60.3849 69.406 60.6329 69.678C60.8849 69.95 61.0769 70.28 61.2089 70.668C61.3449 71.052 61.4129 71.482 61.4129 71.958C61.4129 72.438 61.3449 72.87 61.2089 73.254C61.0769 73.638 60.8849 73.966 60.6329 74.238C60.3849 74.51 60.0809 74.72 59.7209 74.868C59.3649 75.012 58.9649 75.084 58.5209 75.084C58.0769 75.084 57.6749 75.012 57.3149 74.868C56.9589 74.72 56.6549 74.51 56.4029 74.238C56.1509 73.966 55.9569 73.638 55.8209 73.254C55.6849 72.87 55.6169 72.438 55.6169 71.958C55.6169 71.482 55.6849 71.052 55.8209 70.668C55.9569 70.28 56.1509 69.95 56.4029 69.678C56.6549 69.406 56.9589 69.196 57.3149 69.048C57.6749 68.9 58.0769 68.826 58.5209 68.826ZM58.5209 74.25C59.1209 74.25 59.5689 74.05 59.8649 73.65C60.1609 73.246 60.3089 72.684 60.3089 71.964C60.3089 71.24 60.1609 70.676 59.8649 70.272C59.5689 69.868 59.1209 69.666 58.5209 69.666C58.2169 69.666 57.9529 69.718 57.7289 69.822C57.5049 69.926 57.3169 70.076 57.1649 70.272C57.0169 70.468 56.9049 70.71 56.8289 70.998C56.7569 71.282 56.7209 71.604 56.7209 71.964C56.7209 72.324 56.7569 72.646 56.8289 72.93C56.9049 73.214 57.0169 73.454 57.1649 73.65C57.3169 73.842 57.5049 73.99 57.7289 74.094C57.9529 74.198 58.2169 74.25 58.5209 74.25ZM62.7408 75V68.922H63.3768C63.5288 68.922 63.6248 68.996 63.6648 69.144L63.7488 69.804C64.0128 69.512 64.3068 69.276 64.6308 69.096C64.9588 68.916 65.3368 68.826 65.7648 68.826C66.0968 68.826 66.3888 68.882 66.6408 68.994C66.8968 69.102 67.1088 69.258 67.2768 69.462C67.4488 69.662 67.5788 69.904 67.6668 70.188C67.7548 70.472 67.7988 70.786 67.7988 71.13V75H66.7308V71.13C66.7308 70.67 66.6248 70.314 66.4128 70.062C66.2048 69.806 65.8848 69.678 65.4528 69.678C65.1368 69.678 64.8408 69.754 64.5648 69.906C64.2928 70.058 64.0408 70.264 63.8088 70.524V75H62.7408Z" fill="#25282B"/>
<g clip-path="url(#clip0_10_1474)">
<path d="M39.5017 17.1428H36.9236V18.7375H38.7044V22.299C38.7044 24.981 36.5223 27.1628 33.8406 27.1628H33.4685C30.7865 27.1628 28.6047 24.9807 28.6047 22.299V18.7375H30.3854V17.1428H27.8073C27.3669 17.1428 27.01 17.4998 27.01 17.9402V22.299C27.01 25.8602 29.9073 28.7575 33.4685 28.7575H33.8406C37.4017 28.7575 40.299 25.8602 40.299 22.299V17.9402C40.299 17.4998 39.9421 17.1428 39.5017 17.1428Z" fill="white"/>
<path d="M36.8439 16C36.4035 16 36.0465 16.357 36.0465 16.7973V19.0299C36.0465 19.4703 36.4035 19.8273 36.8439 19.8273C37.2843 19.8273 37.6412 19.4703 37.6412 19.0299V16.7973C37.6412 16.357 37.2843 16 36.8439 16Z" fill="white"/>
<path d="M30.5448 16C30.1044 16 29.7475 16.357 29.7475 16.7973V19.0299C29.7475 19.4703 30.1044 19.8273 30.5448 19.8273C30.9852 19.8273 31.3422 19.4703 31.3422 19.0299V16.7973C31.3422 16.357 30.9852 16 30.5448 16Z" fill="white"/>
<path d="M34.505 32.4522V27.9339H32.9103V32.4522H30.3322C28.2512 32.4522 26.5581 34.1452 26.5581 36.226C26.5581 38.3071 28.2631 40.0001 30.3588 40.0001H30.7309C32.812 40.0001 34.505 38.3071 34.505 36.226V34.0469H37.216V32.4522H34.505ZM32.9103 36.2257C32.9103 37.4273 31.9325 38.4052 30.7309 38.4052H30.3588C29.1219 38.4052 28.1528 37.4481 28.1528 36.2257C28.1528 35.0242 29.1306 34.0466 30.3322 34.0466H32.9103V36.2257Z" fill="white"/>
<path d="M38.9436 30.7511C37.5663 30.7511 36.4455 31.8717 36.4455 33.2495C36.4455 34.6268 37.566 35.7476 38.9436 35.7476C40.3211 35.7476 41.4419 34.6268 41.4419 33.2495C41.4419 31.8719 40.3214 30.7511 38.9436 30.7511ZM38.9436 34.1526C38.4455 34.1526 38.0402 33.7473 38.0402 33.2493C38.0402 32.7509 38.4455 32.3456 38.9436 32.3456C39.4419 32.3456 39.8472 32.7509 39.8472 33.2493C39.8472 33.7473 39.4419 34.1526 38.9436 34.1526Z" fill="white"/>
</g>
<g clip-path="url(#clip1_10_1474)">
<path d="M39.5017 17.1428H36.9236V18.7375H38.7044V22.299C38.7044 24.981 36.5223 27.1628 33.8406 27.1628H33.4685C30.7865 27.1628 28.6047 24.9807 28.6047 22.299V18.7375H30.3854V17.1428H27.8073C27.3669 17.1428 27.01 17.4998 27.01 17.9402V22.299C27.01 25.8602 29.9073 28.7575 33.4685 28.7575H33.8406C37.4017 28.7575 40.299 25.8602 40.299 22.299V17.9402C40.299 17.4998 39.9421 17.1428 39.5017 17.1428Z" fill="white"/>
<path d="M36.8439 16C36.4035 16 36.0465 16.357 36.0465 16.7973V19.0299C36.0465 19.4703 36.4035 19.8273 36.8439 19.8273C37.2843 19.8273 37.6412 19.4703 37.6412 19.0299V16.7973C37.6412 16.357 37.2843 16 36.8439 16Z" fill="white"/>
<path d="M30.5448 16C30.1044 16 29.7475 16.357 29.7475 16.7973V19.0299C29.7475 19.4703 30.1044 19.8273 30.5448 19.8273C30.9852 19.8273 31.3422 19.4703 31.3422 19.0299V16.7973C31.3422 16.357 30.9852 16 30.5448 16Z" fill="white"/>
<path d="M34.505 32.4522V27.9339H32.9103V32.4522H30.3322C28.2512 32.4522 26.5581 34.1452 26.5581 36.226C26.5581 38.3071 28.2631 40.0001 30.3588 40.0001H30.7309C32.812 40.0001 34.505 38.3071 34.505 36.226V34.0469H37.216V32.4522H34.505ZM32.9103 36.2257C32.9103 37.4273 31.9325 38.4052 30.7309 38.4052H30.3588C29.1219 38.4052 28.1528 37.4481 28.1528 36.2257C28.1528 35.0242 29.1306 34.0466 30.3322 34.0466H32.9103V36.2257Z" fill="white"/>
<path d="M38.9436 30.7511C37.5663 30.7511 36.4455 31.8717 36.4455 33.2495C36.4455 34.6268 37.566 35.7476 38.9436 35.7476C40.3211 35.7476 41.4419 34.6268 41.4419 33.2495C41.4419 31.8719 40.3214 30.7511 38.9436 30.7511ZM38.9436 34.1526C38.4455 34.1526 38.0402 33.7473 38.0402 33.2493C38.0402 32.7509 38.4455 32.3456 38.9436 32.3456C39.4419 32.3456 39.8472 32.7509 39.8472 33.2493C39.8472 33.7473 39.4419 34.1526 38.9436 34.1526Z" fill="white"/>
</g>
<mask id="mask0_10_1474" style="mask-type:alpha" maskUnits="userSpaceOnUse" x="6" y="0" width="56" height="56">
<rect x="6" width="56" height="56" rx="8" fill="#4485FD"/>
</mask>
<g mask="url(#mask0_10_1474)">
<circle cx="6" r="19" fill="#639AFF"/>
</g>
<defs>
<clipPath id="clip0_10_1474">
<rect width="24" height="24" fill="white" transform="translate(22 16)"/>
</clipPath>
<clipPath id="clip1_10_1474">
<rect width="24" height="24" fill="white" transform="translate(22 16)"/>
</clipPath>
</defs>
</svg>
