<svg width="56" height="81" viewBox="0 0 56 81" fill="none" xmlns="http://www.w3.org/2000/svg">
<rect width="56" height="56" rx="8" fill="#A584FF"/>
<path d="M18.6535 70.704C18.6535 71.348 18.5515 71.934 18.3475 72.462C18.1435 72.99 17.8555 73.442 17.4835 73.818C17.1115 74.194 16.6655 74.486 16.1455 74.694C15.6255 74.898 15.0495 75 14.4175 75H11.2015V66.402H14.4175C15.0495 66.402 15.6255 66.506 16.1455 66.714C16.6655 66.918 17.1115 67.21 17.4835 67.59C17.8555 67.966 18.1435 68.418 18.3475 68.946C18.5515 69.474 18.6535 70.06 18.6535 70.704ZM17.4595 70.704C17.4595 70.176 17.3875 69.704 17.2435 69.288C17.0995 68.872 16.8955 68.52 16.6315 68.232C16.3675 67.944 16.0475 67.724 15.6715 67.572C15.2955 67.42 14.8775 67.344 14.4175 67.344H12.3715V74.058H14.4175C14.8775 74.058 15.2955 73.982 15.6715 73.83C16.0475 73.678 16.3675 73.46 16.6315 73.176C16.8955 72.888 17.0995 72.536 17.2435 72.12C17.3875 71.704 17.4595 71.232 17.4595 70.704ZM22.4867 68.826C22.8507 68.826 23.1867 68.888 23.4947 69.012C23.8027 69.132 24.0687 69.308 24.2927 69.54C24.5167 69.768 24.6907 70.052 24.8147 70.392C24.9427 70.728 25.0067 71.112 25.0067 71.544C25.0067 71.712 24.9887 71.824 24.9527 71.88C24.9167 71.936 24.8487 71.964 24.7487 71.964H20.7047C20.7127 72.348 20.7647 72.682 20.8607 72.966C20.9567 73.25 21.0887 73.488 21.2567 73.68C21.4247 73.868 21.6247 74.01 21.8567 74.106C22.0887 74.198 22.3487 74.244 22.6367 74.244C22.9047 74.244 23.1347 74.214 23.3267 74.154C23.5227 74.09 23.6907 74.022 23.8307 73.95C23.9707 73.878 24.0867 73.812 24.1787 73.752C24.2747 73.688 24.3567 73.656 24.4247 73.656C24.5127 73.656 24.5807 73.69 24.6287 73.758L24.9287 74.148C24.7967 74.308 24.6387 74.448 24.4547 74.568C24.2707 74.684 24.0727 74.78 23.8607 74.856C23.6527 74.932 23.4367 74.988 23.2127 75.024C22.9887 75.064 22.7667 75.084 22.5467 75.084C22.1267 75.084 21.7387 75.014 21.3827 74.874C21.0307 74.73 20.7247 74.522 20.4647 74.25C20.2087 73.974 20.0087 73.634 19.8647 73.23C19.7207 72.826 19.6487 72.362 19.6487 71.838C19.6487 71.414 19.7127 71.018 19.8407 70.65C19.9727 70.282 20.1607 69.964 20.4047 69.696C20.6487 69.424 20.9467 69.212 21.2987 69.06C21.6507 68.904 22.0467 68.826 22.4867 68.826ZM22.5107 69.612C21.9947 69.612 21.5887 69.762 21.2927 70.062C20.9967 70.358 20.8127 70.77 20.7407 71.298H24.0467C24.0467 71.05 24.0127 70.824 23.9447 70.62C23.8767 70.412 23.7767 70.234 23.6447 70.086C23.5127 69.934 23.3507 69.818 23.1587 69.738C22.9707 69.654 22.7547 69.612 22.5107 69.612ZM26.3856 75V68.922H27.0216C27.1736 68.922 27.2696 68.996 27.3096 69.144L27.3936 69.804C27.6576 69.512 27.9516 69.276 28.2756 69.096C28.6036 68.916 28.9816 68.826 29.4096 68.826C29.7416 68.826 30.0336 68.882 30.2856 68.994C30.5416 69.102 30.7536 69.258 30.9216 69.462C31.0936 69.662 31.2236 69.904 31.3116 70.188C31.3996 70.472 31.4436 70.786 31.4436 71.13V75H30.3756V71.13C30.3756 70.67 30.2696 70.314 30.0576 70.062C29.8496 69.806 29.5296 69.678 29.0976 69.678C28.7816 69.678 28.4856 69.754 28.2096 69.906C27.9376 70.058 27.6856 70.264 27.4536 70.524V75H26.3856ZM34.9076 75.096C34.4276 75.096 34.0576 74.962 33.7976 74.694C33.5416 74.426 33.4136 74.04 33.4136 73.536V69.816H32.6816C32.6176 69.816 32.5636 69.798 32.5196 69.762C32.4756 69.722 32.4536 69.662 32.4536 69.582V69.156L33.4496 69.03L33.6956 67.152C33.7036 67.092 33.7296 67.044 33.7736 67.008C33.8176 66.968 33.8736 66.948 33.9416 66.948H34.4816V69.042H36.2216V69.816H34.4816V73.464C34.4816 73.72 34.5436 73.91 34.6676 74.034C34.7916 74.158 34.9516 74.22 35.1476 74.22C35.2596 74.22 35.3556 74.206 35.4356 74.178C35.5196 74.146 35.5916 74.112 35.6516 74.076C35.7116 74.04 35.7616 74.008 35.8016 73.98C35.8456 73.948 35.8836 73.932 35.9156 73.932C35.9716 73.932 36.0216 73.966 36.0656 74.034L36.3776 74.544C36.1936 74.716 35.9716 74.852 35.7116 74.952C35.4516 75.048 35.1836 75.096 34.9076 75.096ZM42.0182 75H41.5442C41.4402 75 41.3562 74.984 41.2922 74.952C41.2282 74.92 41.1862 74.852 41.1662 74.748L41.0462 74.184C40.8862 74.328 40.7302 74.458 40.5782 74.574C40.4262 74.686 40.2662 74.782 40.0982 74.862C39.9302 74.938 39.7502 74.996 39.5582 75.036C39.3702 75.076 39.1602 75.096 38.9282 75.096C38.6922 75.096 38.4702 75.064 38.2622 75C38.0582 74.932 37.8802 74.832 37.7282 74.7C37.5762 74.568 37.4542 74.402 37.3622 74.202C37.2742 73.998 37.2302 73.758 37.2302 73.482C37.2302 73.242 37.2962 73.012 37.4282 72.792C37.5602 72.568 37.7722 72.37 38.0642 72.198C38.3602 72.026 38.7462 71.886 39.2222 71.778C39.6982 71.666 40.2802 71.602 40.9682 71.586V71.112C40.9682 70.64 40.8662 70.284 40.6622 70.044C40.4622 69.8 40.1642 69.678 39.7682 69.678C39.5082 69.678 39.2882 69.712 39.1082 69.78C38.9322 69.844 38.7782 69.918 38.6462 70.002C38.5182 70.082 38.4062 70.156 38.3102 70.224C38.2182 70.288 38.1262 70.32 38.0342 70.32C37.9622 70.32 37.8982 70.302 37.8422 70.266C37.7902 70.226 37.7482 70.178 37.7162 70.122L37.5242 69.78C37.8602 69.456 38.2222 69.214 38.6102 69.054C38.9982 68.894 39.4282 68.814 39.9002 68.814C40.2402 68.814 40.5422 68.87 40.8062 68.982C41.0702 69.094 41.2922 69.25 41.4722 69.45C41.6522 69.65 41.7882 69.892 41.8802 70.176C41.9722 70.46 42.0182 70.772 42.0182 71.112V75ZM39.2462 74.346C39.4342 74.346 39.6062 74.328 39.7622 74.292C39.9182 74.252 40.0642 74.198 40.2002 74.13C40.3402 74.058 40.4722 73.972 40.5962 73.872C40.7242 73.772 40.8482 73.658 40.9682 73.53V72.264C40.4762 72.28 40.0582 72.32 39.7142 72.384C39.3702 72.444 39.0902 72.524 38.8742 72.624C38.6582 72.724 38.5002 72.842 38.4002 72.978C38.3042 73.114 38.2562 73.266 38.2562 73.434C38.2562 73.594 38.2822 73.732 38.3342 73.848C38.3862 73.964 38.4562 74.06 38.5442 74.136C38.6322 74.208 38.7362 74.262 38.8562 74.298C38.9762 74.33 39.1062 74.346 39.2462 74.346ZM44.8362 66.162V75H43.7682V66.162H44.8362Z" fill="#25282B"/>
<path d="M22.1571 17.4602C21.8711 17.0447 21.3029 16.9397 20.888 17.2253C20.2556 17.66 19.7583 18.1251 19.3671 18.6465C19.0681 19.0452 19.1445 19.6104 19.5383 19.9155C19.7044 20.0442 19.9012 20.1065 20.0965 20.1065C20.3645 20.1065 20.6298 19.9891 20.8095 19.764C21.1189 19.3771 21.514 19.0097 21.9219 18.7292C22.1796 18.5522 22.3177 18.2662 22.3177 17.9757C22.3177 17.7978 22.2653 17.618 22.1571 17.4602Z" fill="black"/>
<path d="M37.8507 20.6586C37.2488 18.71 35.8535 17.2228 34.1278 16.6835C31.8994 15.9602 29.9441 16.4235 28.5701 17.0452C27.4882 16.3677 26.196 16 24.8728 16C23.4319 16 22.0539 16.4237 20.888 17.2253C20.3365 17.6046 19.823 18.08 19.4021 18.602C19.3534 18.658 19.3172 18.7121 19.2895 18.7592C18.3052 20.049 17.7853 21.5763 17.7853 23.1787C17.7853 24.8885 18.3913 26.5418 19.493 27.8394C19.5204 27.8796 19.5511 27.9225 19.5822 27.966C19.6144 28.0113 19.6467 28.056 19.6725 28.0949C19.6819 28.1089 19.6917 28.1226 19.7017 28.136C20.1129 28.6844 20.5212 30.7781 20.6954 31.6721C20.7414 31.9082 20.7818 32.1156 20.8147 32.2698C20.9011 32.7017 20.989 33.1687 21.0462 33.6553C21.2375 35.3143 21.5575 36.6701 21.9925 37.6733C22.5975 39.1255 23.4489 39.9069 24.5232 39.9963C24.5485 39.9984 24.5741 39.9996 24.5993 39.9996H24.721C26.0533 39.9996 26.7937 38.4669 27.3424 36.9672C27.3469 36.9544 27.3512 36.942 27.3552 36.9292L28.1056 34.5609L28.8381 36.9237C28.8426 36.9383 28.8472 36.9529 28.8527 36.9675C29.3692 38.3793 30.1342 40 31.4739 40H31.5956C31.6217 40 31.6482 39.9988 31.6744 39.9967C32.4129 39.9325 33.4508 39.4774 34.2012 37.6761C34.6091 36.7024 34.9096 35.4303 35.1478 33.6581C35.2056 33.1684 35.2935 32.7021 35.3778 32.2808C35.4125 32.1166 35.4529 31.9097 35.4988 31.6742C35.6728 30.7796 36.081 28.6854 36.4962 28.1318C38.1321 25.917 38.6374 23.12 37.8507 20.6586ZM35.0322 27.0415C34.4208 27.8576 34.0564 29.533 33.7075 31.3247C33.6637 31.5489 33.6253 31.7457 33.5904 31.9118C33.4964 32.3802 33.4006 32.8903 33.337 33.4296C33.1228 35.0236 32.8627 36.1484 32.5172 36.9722C32.2231 37.6785 31.8614 38.1241 31.5441 38.1749H31.5423C31.4437 38.0997 31.0839 37.7484 30.5744 36.3617L29.2427 32.0645C29.2375 32.0475 29.2317 32.0307 29.2257 32.0143C29.0492 31.5434 28.6121 31.2395 28.1123 31.2395C27.6125 31.2395 27.1758 31.5434 26.9993 32.0143C26.9938 32.0286 26.9887 32.0435 26.9838 32.0587L25.6211 36.3589C25.0988 37.7813 24.7593 38.1073 24.665 38.1749H24.6474C24.213 38.1107 23.8541 37.3974 23.6719 36.96C23.3083 36.1217 23.0273 34.9067 22.8588 33.4445C22.7937 32.8918 22.6978 32.3814 22.6017 31.902C22.5689 31.7457 22.5303 31.5482 22.4865 31.3234C22.1406 29.5479 21.7796 27.8862 21.1776 27.0631C21.1447 27.0144 21.1058 26.9603 21.0672 26.9058C21.0352 26.8611 21.0033 26.8167 20.9777 26.7783C20.957 26.7473 20.9345 26.7178 20.9102 26.6895C20.0721 25.7161 19.6104 24.4693 19.6104 23.1786C19.6104 21.9795 20.001 20.8349 20.7408 19.8658C20.7828 19.8162 20.8147 19.7687 20.8399 19.7265C21.1447 19.3535 21.5274 19.0004 21.9222 18.7291C22.7825 18.1377 23.8027 17.825 24.8728 17.825C25.9995 17.825 27.0894 18.1806 27.9414 18.8258C28.2246 19.0405 28.6066 19.071 28.9193 18.9049C29.9849 18.3412 31.6549 17.7995 33.5739 18.4218C34.7529 18.7905 35.6761 19.8016 36.1099 21.2051C36.7213 23.1185 36.3171 25.3022 35.0322 27.0415Z" fill="white"/>
<mask id="mask0_10_1475" style="mask-type:alpha" maskUnits="userSpaceOnUse" x="0" y="0" width="56" height="56">
<rect width="56" height="56" rx="8" fill="#4485FD"/>
</mask>
<g mask="url(#mask0_10_1475)">
<circle r="19" fill="#B79CFF"/>
</g>
</svg>
