<svg width="56" height="81" viewBox="0 0 56 81" fill="none" xmlns="http://www.w3.org/2000/svg">
<rect width="56" height="56" rx="8" fill="#FEA725"/>
<path d="M11.2356 75H10.0656V71.088H5.43358V75H4.26358V66.402H5.43358V70.236H10.0656V66.402H11.2356V75ZM15.6379 68.826C16.0819 68.826 16.4819 68.9 16.8379 69.048C17.1979 69.196 17.5019 69.406 17.7499 69.678C18.0019 69.95 18.1939 70.28 18.3259 70.668C18.4619 71.052 18.5299 71.482 18.5299 71.958C18.5299 72.438 18.4619 72.87 18.3259 73.254C18.1939 73.638 18.0019 73.966 17.7499 74.238C17.5019 74.51 17.1979 74.72 16.8379 74.868C16.4819 75.012 16.0819 75.084 15.6379 75.084C15.1939 75.084 14.7919 75.012 14.4319 74.868C14.0759 74.72 13.7719 74.51 13.5199 74.238C13.2679 73.966 13.0739 73.638 12.9379 73.254C12.8019 72.87 12.7339 72.438 12.7339 71.958C12.7339 71.482 12.8019 71.052 12.9379 70.668C13.0739 70.28 13.2679 69.95 13.5199 69.678C13.7719 69.406 14.0759 69.196 14.4319 69.048C14.7919 68.9 15.1939 68.826 15.6379 68.826ZM15.6379 74.25C16.2379 74.25 16.6859 74.05 16.9819 73.65C17.2779 73.246 17.4259 72.684 17.4259 71.964C17.4259 71.24 17.2779 70.676 16.9819 70.272C16.6859 69.868 16.2379 69.666 15.6379 69.666C15.3339 69.666 15.0699 69.718 14.8459 69.822C14.6219 69.926 14.4339 70.076 14.2819 70.272C14.1339 70.468 14.0219 70.71 13.9459 70.998C13.8739 71.282 13.8379 71.604 13.8379 71.964C13.8379 72.324 13.8739 72.646 13.9459 72.93C14.0219 73.214 14.1339 73.454 14.2819 73.65C14.4339 73.842 14.6219 73.99 14.8459 74.094C15.0699 74.198 15.3339 74.25 15.6379 74.25ZM23.3379 69.924C23.2899 70.012 23.2159 70.056 23.1159 70.056C23.0559 70.056 22.9879 70.034 22.9119 69.99C22.8359 69.946 22.7419 69.898 22.6299 69.846C22.5219 69.79 22.3919 69.74 22.2399 69.696C22.0879 69.648 21.9079 69.624 21.6999 69.624C21.5199 69.624 21.3579 69.648 21.2139 69.696C21.0699 69.74 20.9459 69.802 20.8419 69.882C20.7419 69.962 20.6639 70.056 20.6079 70.164C20.5559 70.268 20.5299 70.382 20.5299 70.506C20.5299 70.662 20.5739 70.792 20.6619 70.896C20.7539 71 20.8739 71.09 21.0219 71.166C21.1699 71.242 21.3379 71.31 21.5259 71.37C21.7139 71.426 21.9059 71.488 22.1019 71.556C22.3019 71.62 22.4959 71.692 22.6839 71.772C22.8719 71.852 23.0399 71.952 23.1879 72.072C23.3359 72.192 23.4539 72.34 23.5419 72.516C23.6339 72.688 23.6799 72.896 23.6799 73.14C23.6799 73.42 23.6299 73.68 23.5299 73.92C23.4299 74.156 23.2819 74.362 23.0859 74.538C22.8899 74.71 22.6499 74.846 22.3659 74.946C22.0819 75.046 21.7539 75.096 21.3819 75.096C20.9579 75.096 20.5739 75.028 20.2299 74.892C19.8859 74.752 19.5939 74.574 19.3539 74.358L19.6059 73.95C19.6379 73.898 19.6759 73.858 19.7199 73.83C19.7639 73.802 19.8219 73.788 19.8939 73.788C19.9659 73.788 20.0419 73.816 20.1219 73.872C20.2019 73.928 20.2979 73.99 20.4099 74.058C20.5259 74.126 20.6639 74.188 20.8239 74.244C20.9879 74.3 21.1919 74.328 21.4359 74.328C21.6439 74.328 21.8259 74.302 21.9819 74.25C22.1379 74.194 22.2679 74.12 22.3719 74.028C22.4759 73.936 22.5519 73.83 22.5999 73.71C22.6519 73.59 22.6779 73.462 22.6779 73.326C22.6779 73.158 22.6319 73.02 22.5399 72.912C22.4519 72.8 22.3339 72.706 22.1859 72.63C22.0379 72.55 21.8679 72.482 21.6759 72.426C21.4879 72.366 21.2939 72.304 21.0939 72.24C20.8979 72.176 20.7039 72.104 20.5119 72.024C20.3239 71.94 20.1559 71.836 20.0079 71.712C19.8599 71.588 19.7399 71.436 19.6479 71.256C19.5599 71.072 19.5159 70.85 19.5159 70.59C19.5159 70.358 19.5639 70.136 19.6599 69.924C19.7559 69.708 19.8959 69.52 20.0799 69.36C20.2639 69.196 20.4899 69.066 20.7579 68.97C21.0259 68.874 21.3319 68.826 21.6759 68.826C22.0759 68.826 22.4339 68.89 22.7499 69.018C23.0699 69.142 23.3459 69.314 23.5779 69.534L23.3379 69.924ZM25.073 77.058V68.922H25.709C25.861 68.922 25.957 68.996 25.997 69.144L26.087 69.864C26.347 69.548 26.643 69.294 26.975 69.102C27.311 68.91 27.697 68.814 28.133 68.814C28.481 68.814 28.797 68.882 29.081 69.018C29.365 69.15 29.607 69.348 29.807 69.612C30.007 69.872 30.161 70.196 30.269 70.584C30.377 70.972 30.431 71.418 30.431 71.922C30.431 72.37 30.371 72.788 30.251 73.176C30.131 73.56 29.959 73.894 29.735 74.178C29.511 74.458 29.235 74.68 28.907 74.844C28.583 75.004 28.217 75.084 27.809 75.084C27.433 75.084 27.111 75.022 26.843 74.898C26.579 74.774 26.345 74.598 26.141 74.37V77.058H25.073ZM27.779 69.678C27.431 69.678 27.125 69.758 26.861 69.918C26.601 70.078 26.361 70.304 26.141 70.596V73.536C26.337 73.8 26.551 73.986 26.783 74.094C27.019 74.202 27.281 74.256 27.569 74.256C28.133 74.256 28.567 74.054 28.871 73.65C29.175 73.246 29.327 72.67 29.327 71.922C29.327 71.526 29.291 71.186 29.219 70.902C29.151 70.618 29.051 70.386 28.919 70.206C28.787 70.022 28.625 69.888 28.433 69.804C28.241 69.72 28.023 69.678 27.779 69.678ZM32.8941 68.922V75H31.8261V68.922H32.8941ZM33.1341 67.014C33.1341 67.118 33.1121 67.216 33.0681 67.308C33.0281 67.396 32.9721 67.476 32.9001 67.548C32.8321 67.616 32.7521 67.67 32.6601 67.71C32.5681 67.75 32.4701 67.77 32.3661 67.77C32.2621 67.77 32.1641 67.75 32.0721 67.71C31.9841 67.67 31.9041 67.616 31.8321 67.548C31.7641 67.476 31.7101 67.396 31.6701 67.308C31.6301 67.216 31.6101 67.118 31.6101 67.014C31.6101 66.91 31.6301 66.812 31.6701 66.72C31.7101 66.624 31.7641 66.542 31.8321 66.474C31.9041 66.402 31.9841 66.346 32.0721 66.306C32.1641 66.266 32.2621 66.246 32.3661 66.246C32.4701 66.246 32.5681 66.266 32.6601 66.306C32.7521 66.346 32.8321 66.402 32.9001 66.474C32.9721 66.542 33.0281 66.624 33.0681 66.72C33.1121 66.812 33.1341 66.91 33.1341 67.014ZM36.6304 75.096C36.1504 75.096 35.7804 74.962 35.5204 74.694C35.2644 74.426 35.1364 74.04 35.1364 73.536V69.816H34.4044C34.3404 69.816 34.2864 69.798 34.2424 69.762C34.1984 69.722 34.1764 69.662 34.1764 69.582V69.156L35.1724 69.03L35.4184 67.152C35.4264 67.092 35.4524 67.044 35.4964 67.008C35.5404 66.968 35.5964 66.948 35.6644 66.948H36.2044V69.042H37.9444V69.816H36.2044V73.464C36.2044 73.72 36.2664 73.91 36.3904 74.034C36.5144 74.158 36.6744 74.22 36.8704 74.22C36.9824 74.22 37.0784 74.206 37.1584 74.178C37.2424 74.146 37.3144 74.112 37.3744 74.076C37.4344 74.04 37.4844 74.008 37.5244 73.98C37.5684 73.948 37.6064 73.932 37.6384 73.932C37.6944 73.932 37.7444 73.966 37.7884 74.034L38.1004 74.544C37.9164 74.716 37.6944 74.852 37.4344 74.952C37.1744 75.048 36.9064 75.096 36.6304 75.096ZM43.741 75H43.267C43.163 75 43.079 74.984 43.015 74.952C42.951 74.92 42.909 74.852 42.889 74.748L42.769 74.184C42.609 74.328 42.453 74.458 42.301 74.574C42.149 74.686 41.989 74.782 41.821 74.862C41.653 74.938 41.473 74.996 41.281 75.036C41.093 75.076 40.883 75.096 40.651 75.096C40.415 75.096 40.193 75.064 39.985 75C39.781 74.932 39.603 74.832 39.451 74.7C39.299 74.568 39.177 74.402 39.085 74.202C38.997 73.998 38.953 73.758 38.953 73.482C38.953 73.242 39.019 73.012 39.151 72.792C39.283 72.568 39.495 72.37 39.787 72.198C40.083 72.026 40.469 71.886 40.945 71.778C41.421 71.666 42.003 71.602 42.691 71.586V71.112C42.691 70.64 42.589 70.284 42.385 70.044C42.185 69.8 41.887 69.678 41.491 69.678C41.231 69.678 41.011 69.712 40.831 69.78C40.655 69.844 40.501 69.918 40.369 70.002C40.241 70.082 40.129 70.156 40.033 70.224C39.941 70.288 39.849 70.32 39.757 70.32C39.685 70.32 39.621 70.302 39.565 70.266C39.513 70.226 39.471 70.178 39.439 70.122L39.247 69.78C39.583 69.456 39.945 69.214 40.333 69.054C40.721 68.894 41.151 68.814 41.623 68.814C41.963 68.814 42.265 68.87 42.529 68.982C42.793 69.094 43.015 69.25 43.195 69.45C43.375 69.65 43.511 69.892 43.603 70.176C43.695 70.46 43.741 70.772 43.741 71.112V75ZM40.969 74.346C41.157 74.346 41.329 74.328 41.485 74.292C41.641 74.252 41.787 74.198 41.923 74.13C42.063 74.058 42.195 73.972 42.319 73.872C42.447 73.772 42.571 73.658 42.691 73.53V72.264C42.199 72.28 41.781 72.32 41.437 72.384C41.093 72.444 40.813 72.524 40.597 72.624C40.381 72.724 40.223 72.842 40.123 72.978C40.027 73.114 39.979 73.266 39.979 73.434C39.979 73.594 40.005 73.732 40.057 73.848C40.109 73.964 40.179 74.06 40.267 74.136C40.355 74.208 40.459 74.262 40.579 74.298C40.699 74.33 40.829 74.346 40.969 74.346ZM46.559 66.162V75H45.491V66.162H46.559ZM51.9333 69.924C51.8853 70.012 51.8113 70.056 51.7113 70.056C51.6513 70.056 51.5833 70.034 51.5073 69.99C51.4313 69.946 51.3373 69.898 51.2253 69.846C51.1173 69.79 50.9873 69.74 50.8353 69.696C50.6833 69.648 50.5033 69.624 50.2953 69.624C50.1153 69.624 49.9533 69.648 49.8093 69.696C49.6653 69.74 49.5413 69.802 49.4373 69.882C49.3373 69.962 49.2593 70.056 49.2033 70.164C49.1513 70.268 49.1253 70.382 49.1253 70.506C49.1253 70.662 49.1693 70.792 49.2573 70.896C49.3493 71 49.4693 71.09 49.6173 71.166C49.7653 71.242 49.9333 71.31 50.1213 71.37C50.3093 71.426 50.5013 71.488 50.6973 71.556C50.8973 71.62 51.0913 71.692 51.2793 71.772C51.4673 71.852 51.6353 71.952 51.7833 72.072C51.9313 72.192 52.0493 72.34 52.1373 72.516C52.2293 72.688 52.2753 72.896 52.2753 73.14C52.2753 73.42 52.2253 73.68 52.1253 73.92C52.0253 74.156 51.8773 74.362 51.6813 74.538C51.4853 74.71 51.2453 74.846 50.9613 74.946C50.6773 75.046 50.3493 75.096 49.9773 75.096C49.5533 75.096 49.1693 75.028 48.8253 74.892C48.4813 74.752 48.1893 74.574 47.9493 74.358L48.2013 73.95C48.2333 73.898 48.2713 73.858 48.3153 73.83C48.3593 73.802 48.4173 73.788 48.4893 73.788C48.5613 73.788 48.6373 73.816 48.7173 73.872C48.7973 73.928 48.8933 73.99 49.0053 74.058C49.1213 74.126 49.2593 74.188 49.4193 74.244C49.5833 74.3 49.7873 74.328 50.0313 74.328C50.2393 74.328 50.4213 74.302 50.5773 74.25C50.7333 74.194 50.8633 74.12 50.9673 74.028C51.0713 73.936 51.1473 73.83 51.1953 73.71C51.2473 73.59 51.2733 73.462 51.2733 73.326C51.2733 73.158 51.2273 73.02 51.1353 72.912C51.0473 72.8 50.9293 72.706 50.7813 72.63C50.6333 72.55 50.4633 72.482 50.2713 72.426C50.0833 72.366 49.8893 72.304 49.6893 72.24C49.4933 72.176 49.2993 72.104 49.1073 72.024C48.9193 71.94 48.7513 71.836 48.6033 71.712C48.4553 71.588 48.3353 71.436 48.2433 71.256C48.1553 71.072 48.1113 70.85 48.1113 70.59C48.1113 70.358 48.1593 70.136 48.2553 69.924C48.3513 69.708 48.4913 69.52 48.6753 69.36C48.8593 69.196 49.0853 69.066 49.3533 68.97C49.6213 68.874 49.9273 68.826 50.2713 68.826C50.6713 68.826 51.0293 68.89 51.3453 69.018C51.6653 69.142 51.9413 69.314 52.1733 69.534L51.9333 69.924Z" fill="#25282B"/>
<mask id="mask0_10_1477" style="mask-type:alpha" maskUnits="userSpaceOnUse" x="0" y="0" width="56" height="56">
<rect width="56" height="56" rx="8" fill="#4485FD"/>
</mask>
<g mask="url(#mask0_10_1477)">
<circle r="19" fill="#FFB547"/>
</g>
<g clip-path="url(#clip0_10_1477)">
<path d="M34.7816 28.9832V37.5798H21.2186V28.8067H19.706V38.3361C19.706 38.7539 20.0446 39.0924 20.4623 39.0924H35.538C35.9557 39.0924 36.2942 38.7538 36.2942 38.3361V28.9832H34.7816Z" fill="white"/>
<path d="M39.9976 27.5615C39.981 27.3533 39.8789 27.1612 39.7155 27.0308L28.4718 18.056C28.1955 17.8356 27.804 17.8356 27.5282 18.056L16.2845 27.0308C16.1211 27.1612 16.019 27.3533 16.0024 27.5615C15.9857 27.7697 16.0561 27.9757 16.1965 28.1302L18.4402 30.6008C18.589 30.7647 18.7942 30.8487 19.0004 30.8487C19.1665 30.8487 19.3339 30.794 19.4728 30.6828L28.0001 23.8514L36.5269 30.6828C36.8393 30.9319 37.2913 30.897 37.5598 30.6008L39.8035 28.1302C39.9442 27.9757 40.0143 27.7697 39.9976 27.5615ZM36.918 29.0575L28.4728 22.2921C28.3349 22.1814 28.1675 22.126 28.0001 22.126C27.8327 22.126 27.6654 22.1814 27.5272 22.2921L19.0818 29.0575L17.8581 27.71L28.0001 19.6145L38.1419 27.71L36.918 29.0575Z" fill="white"/>
<path d="M35.0085 16.9077H32.0335C31.6157 16.9077 31.2772 17.2463 31.2772 17.664V21.9497H32.7898V18.4202H34.2523V24.2185H35.7649V17.664C35.7649 17.2462 35.4263 16.9077 35.0085 16.9077Z" fill="white"/>
<path d="M28.0001 28.9831C27.5824 28.9831 27.2439 29.3217 27.2439 29.7394V34.8319C27.2439 35.2496 27.5824 35.5881 28.0001 35.5881C28.4178 35.5881 28.7562 35.2496 28.7564 34.8319V29.7394C28.7564 29.3217 28.4178 28.9831 28.0001 28.9831Z" fill="white"/>
<path d="M30.5463 31.5293H25.4539C25.0362 31.5293 24.6977 31.8679 24.6977 32.2856C24.6977 32.7033 25.0362 33.0419 25.4539 33.0419H30.5464C30.9641 33.0419 31.3027 32.7033 31.3027 32.2856C31.3027 31.8679 30.9641 31.5293 30.5463 31.5293Z" fill="white"/>
</g>
<defs>
<clipPath id="clip0_10_1477">
<rect width="24" height="24" fill="white" transform="translate(16 16)"/>
</clipPath>
</defs>
</svg>
