<svg width="56" height="81" viewBox="0 0 56 81" fill="none" xmlns="http://www.w3.org/2000/svg">
<rect width="56" height="56" rx="8" fill="#FF7854"/>
<path d="M21.1111 75H19.9411V71.088H15.3091V75H14.1391V66.402H15.3091V70.236H19.9411V66.402H21.1111V75ZM25.4595 68.826C25.8235 68.826 26.1595 68.888 26.4675 69.012C26.7755 69.132 27.0415 69.308 27.2655 69.54C27.4895 69.768 27.6635 70.052 27.7875 70.392C27.9155 70.728 27.9795 71.112 27.9795 71.544C27.9795 71.712 27.9615 71.824 27.9255 71.88C27.8895 71.936 27.8215 71.964 27.7215 71.964H23.6775C23.6855 72.348 23.7375 72.682 23.8335 72.966C23.9295 73.25 24.0615 73.488 24.2295 73.68C24.3975 73.868 24.5975 74.01 24.8295 74.106C25.0615 74.198 25.3215 74.244 25.6095 74.244C25.8775 74.244 26.1075 74.214 26.2995 74.154C26.4955 74.09 26.6635 74.022 26.8035 73.95C26.9435 73.878 27.0595 73.812 27.1515 73.752C27.2475 73.688 27.3295 73.656 27.3975 73.656C27.4855 73.656 27.5535 73.69 27.6015 73.758L27.9015 74.148C27.7695 74.308 27.6115 74.448 27.4275 74.568C27.2435 74.684 27.0455 74.78 26.8335 74.856C26.6255 74.932 26.4095 74.988 26.1855 75.024C25.9615 75.064 25.7395 75.084 25.5195 75.084C25.0995 75.084 24.7115 75.014 24.3555 74.874C24.0035 74.73 23.6975 74.522 23.4375 74.25C23.1815 73.974 22.9815 73.634 22.8375 73.23C22.6935 72.826 22.6215 72.362 22.6215 71.838C22.6215 71.414 22.6855 71.018 22.8135 70.65C22.9455 70.282 23.1335 69.964 23.3775 69.696C23.6215 69.424 23.9195 69.212 24.2715 69.06C24.6235 68.904 25.0195 68.826 25.4595 68.826ZM25.4835 69.612C24.9675 69.612 24.5615 69.762 24.2655 70.062C23.9695 70.358 23.7855 70.77 23.7135 71.298H27.0195C27.0195 71.05 26.9855 70.824 26.9175 70.62C26.8495 70.412 26.7495 70.234 26.6175 70.086C26.4855 69.934 26.3235 69.818 26.1315 69.738C25.9435 69.654 25.7275 69.612 25.4835 69.612ZM33.8224 75H33.3484C33.2444 75 33.1604 74.984 33.0964 74.952C33.0324 74.92 32.9904 74.852 32.9704 74.748L32.8504 74.184C32.6904 74.328 32.5344 74.458 32.3824 74.574C32.2304 74.686 32.0704 74.782 31.9024 74.862C31.7344 74.938 31.5544 74.996 31.3624 75.036C31.1744 75.076 30.9644 75.096 30.7324 75.096C30.4964 75.096 30.2744 75.064 30.0664 75C29.8624 74.932 29.6844 74.832 29.5324 74.7C29.3804 74.568 29.2584 74.402 29.1664 74.202C29.0784 73.998 29.0344 73.758 29.0344 73.482C29.0344 73.242 29.1004 73.012 29.2324 72.792C29.3644 72.568 29.5764 72.37 29.8684 72.198C30.1644 72.026 30.5504 71.886 31.0264 71.778C31.5024 71.666 32.0844 71.602 32.7724 71.586V71.112C32.7724 70.64 32.6704 70.284 32.4664 70.044C32.2664 69.8 31.9684 69.678 31.5724 69.678C31.3124 69.678 31.0924 69.712 30.9124 69.78C30.7364 69.844 30.5824 69.918 30.4504 70.002C30.3224 70.082 30.2104 70.156 30.1144 70.224C30.0224 70.288 29.9304 70.32 29.8384 70.32C29.7664 70.32 29.7024 70.302 29.6464 70.266C29.5944 70.226 29.5524 70.178 29.5204 70.122L29.3284 69.78C29.6644 69.456 30.0264 69.214 30.4144 69.054C30.8024 68.894 31.2324 68.814 31.7044 68.814C32.0444 68.814 32.3464 68.87 32.6104 68.982C32.8744 69.094 33.0964 69.25 33.2764 69.45C33.4564 69.65 33.5924 69.892 33.6844 70.176C33.7764 70.46 33.8224 70.772 33.8224 71.112V75ZM31.0504 74.346C31.2384 74.346 31.4104 74.328 31.5664 74.292C31.7224 74.252 31.8684 74.198 32.0044 74.13C32.1444 74.058 32.2764 73.972 32.4004 73.872C32.5284 73.772 32.6524 73.658 32.7724 73.53V72.264C32.2804 72.28 31.8624 72.32 31.5184 72.384C31.1744 72.444 30.8944 72.524 30.6784 72.624C30.4624 72.724 30.3044 72.842 30.2044 72.978C30.1084 73.114 30.0604 73.266 30.0604 73.434C30.0604 73.594 30.0864 73.732 30.1384 73.848C30.1904 73.964 30.2604 74.06 30.3484 74.136C30.4364 74.208 30.5404 74.262 30.6604 74.298C30.7804 74.33 30.9104 74.346 31.0504 74.346ZM35.4525 75V68.922H36.0645C36.1805 68.922 36.2605 68.944 36.3045 68.988C36.3485 69.032 36.3785 69.108 36.3945 69.216L36.4665 70.164C36.6745 69.74 36.9305 69.41 37.2345 69.174C37.5425 68.934 37.9025 68.814 38.3145 68.814C38.4825 68.814 38.6345 68.834 38.7705 68.874C38.9065 68.91 39.0325 68.962 39.1485 69.03L39.0105 69.828C38.9825 69.928 38.9205 69.978 38.8245 69.978C38.7685 69.978 38.6825 69.96 38.5665 69.924C38.4505 69.884 38.2885 69.864 38.0805 69.864C37.7085 69.864 37.3965 69.972 37.1445 70.188C36.8965 70.404 36.6885 70.718 36.5205 71.13V75H35.4525ZM42.1463 75.096C41.6663 75.096 41.2963 74.962 41.0363 74.694C40.7803 74.426 40.6523 74.04 40.6523 73.536V69.816H39.9203C39.8563 69.816 39.8023 69.798 39.7583 69.762C39.7143 69.722 39.6923 69.662 39.6923 69.582V69.156L40.6883 69.03L40.9343 67.152C40.9423 67.092 40.9683 67.044 41.0123 67.008C41.0563 66.968 41.1123 66.948 41.1803 66.948H41.7203V69.042H43.4603V69.816H41.7203V73.464C41.7203 73.72 41.7823 73.91 41.9063 74.034C42.0303 74.158 42.1903 74.22 42.3863 74.22C42.4983 74.22 42.5943 74.206 42.6743 74.178C42.7583 74.146 42.8303 74.112 42.8903 74.076C42.9503 74.04 43.0003 74.008 43.0403 73.98C43.0843 73.948 43.1223 73.932 43.1543 73.932C43.2103 73.932 43.2603 73.966 43.3043 74.034L43.6163 74.544C43.4323 74.716 43.2103 74.852 42.9503 74.952C42.6903 75.048 42.4223 75.096 42.1463 75.096Z" fill="#25282B"/>
<path d="M37.8898 19.3413C36.6794 18.1176 35.0442 17.4411 33.2855 17.4361C31.4753 17.4301 29.6613 18.116 28.2078 19.3352C26.5548 17.8795 25.0595 17.1697 23.6514 17.1697C21.6849 17.1697 19.8604 17.9443 18.5264 19.3383C17.5237 20.3409 16.8367 21.6574 16.5389 23.1455C16.4498 23.5927 16.7395 24.0276 17.1868 24.1171C17.6335 24.2057 18.0689 23.9165 18.1584 23.4692C18.3918 22.302 18.9227 21.2773 19.7066 20.4931C20.7387 19.4148 22.1399 18.8211 23.6514 18.8211C24.7466 18.8211 26.0732 19.559 27.5804 20.9998C27.7493 21.1696 27.9714 21.2635 28.2057 21.2638C28.206 21.2638 28.2065 21.2638 28.2068 21.2638C28.4404 21.2638 28.6625 21.1705 28.8318 21.0012C30.0486 19.7844 31.6642 19.0875 33.266 19.0875C33.2713 19.0875 33.2762 19.0875 33.2812 19.0875C34.616 19.0911 35.8039 19.5808 36.7066 20.4931C37.7657 21.5993 38.349 23.0481 38.349 24.5734C38.349 26.0999 37.7525 27.5847 36.7292 28.6311L28.2202 36.8566L21.4729 30.3375C21.1451 30.0207 20.6225 30.0303 20.3054 30.3573C19.9886 30.6854 19.9977 31.2081 20.3255 31.5248L27.6466 38.5982C27.8065 38.7529 28.0135 38.8303 28.2202 38.8303C28.4268 38.8303 28.6338 38.7529 28.794 38.5985L37.8931 29.8022C39.2321 28.4335 40 26.5278 40 24.5734C40 22.6206 39.2538 20.7659 37.8898 19.3413Z" fill="white"/>
<path d="M38.5138 26.4726H31.8532C31.6259 26.4726 31.409 26.5658 31.2532 26.731L28.7494 29.3784L25.8656 22.8368C25.7417 22.5558 25.472 22.3667 25.1657 22.3461C24.861 22.3265 24.5668 22.4765 24.4063 22.7383L22.1159 26.4726H16.8257C16.3696 26.4726 16 26.8422 16 27.2983C16 27.7544 16.3696 28.124 16.8257 28.124H22.5777C22.8648 28.124 23.1315 27.9748 23.2815 27.7298L24.9902 24.9445L27.74 31.1818C27.8515 31.435 28.0824 31.6153 28.3548 31.6623C28.4016 31.6703 28.4487 31.6744 28.4955 31.6744C28.7206 31.6744 28.9383 31.5825 29.0955 31.4162L32.2089 28.1239H38.5138C38.9699 28.1239 39.3395 27.7543 39.3395 27.2982C39.3394 26.8422 38.9698 26.4726 38.5138 26.4726Z" fill="white"/>
<mask id="mask0_10_1476" style="mask-type:alpha" maskUnits="userSpaceOnUse" x="0" y="0" width="56" height="56">
<rect width="56" height="56" rx="8" fill="#4485FD"/>
</mask>
<g mask="url(#mask0_10_1476)">
<circle r="19" fill="#FFA188"/>
</g>
</svg>
