<svg width="56" height="81" viewBox="0 0 56 81" fill="none" xmlns="http://www.w3.org/2000/svg">
<rect width="56" height="56" rx="8" fill="#00CC6A"/>
<path d="M6.7553 71.892C6.8113 71.988 6.8593 72.09 6.8993 72.198C6.9433 72.302 6.9853 72.408 7.0253 72.516C7.0653 72.404 7.1073 72.298 7.1513 72.198C7.1953 72.094 7.2453 71.99 7.3013 71.886L10.2113 66.6C10.2633 66.508 10.3173 66.452 10.3733 66.432C10.4293 66.412 10.5093 66.402 10.6133 66.402H11.4713V75H10.4513V68.682C10.4513 68.598 10.4533 68.508 10.4573 68.412C10.4613 68.316 10.4673 68.218 10.4753 68.118L7.5293 73.494C7.4293 73.674 7.2893 73.764 7.1093 73.764H6.9413C6.7613 73.764 6.6213 73.674 6.5213 73.494L3.5093 68.1C3.5213 68.204 3.5293 68.306 3.5333 68.406C3.5413 68.506 3.5453 68.598 3.5453 68.682V75H2.5253V66.402H3.3833C3.4873 66.402 3.5673 66.412 3.6233 66.432C3.6793 66.452 3.7333 66.508 3.7853 66.6L6.7553 71.892ZM15.8144 68.826C16.1784 68.826 16.5144 68.888 16.8224 69.012C17.1304 69.132 17.3964 69.308 17.6204 69.54C17.8444 69.768 18.0184 70.052 18.1424 70.392C18.2704 70.728 18.3344 71.112 18.3344 71.544C18.3344 71.712 18.3164 71.824 18.2804 71.88C18.2444 71.936 18.1764 71.964 18.0764 71.964H14.0324C14.0404 72.348 14.0924 72.682 14.1884 72.966C14.2844 73.25 14.4164 73.488 14.5844 73.68C14.7524 73.868 14.9524 74.01 15.1844 74.106C15.4164 74.198 15.6764 74.244 15.9644 74.244C16.2324 74.244 16.4624 74.214 16.6544 74.154C16.8504 74.09 17.0184 74.022 17.1584 73.95C17.2984 73.878 17.4144 73.812 17.5064 73.752C17.6024 73.688 17.6844 73.656 17.7524 73.656C17.8404 73.656 17.9084 73.69 17.9564 73.758L18.2564 74.148C18.1244 74.308 17.9664 74.448 17.7824 74.568C17.5984 74.684 17.4004 74.78 17.1884 74.856C16.9804 74.932 16.7644 74.988 16.5404 75.024C16.3164 75.064 16.0944 75.084 15.8744 75.084C15.4544 75.084 15.0664 75.014 14.7104 74.874C14.3584 74.73 14.0524 74.522 13.7924 74.25C13.5364 73.974 13.3364 73.634 13.1924 73.23C13.0484 72.826 12.9764 72.362 12.9764 71.838C12.9764 71.414 13.0404 71.018 13.1684 70.65C13.3004 70.282 13.4884 69.964 13.7324 69.696C13.9764 69.424 14.2744 69.212 14.6264 69.06C14.9784 68.904 15.3744 68.826 15.8144 68.826ZM15.8384 69.612C15.3224 69.612 14.9164 69.762 14.6204 70.062C14.3244 70.358 14.1404 70.77 14.0684 71.298H17.3744C17.3744 71.05 17.3404 70.824 17.2724 70.62C17.2044 70.412 17.1044 70.234 16.9724 70.086C16.8404 69.934 16.6784 69.818 16.4864 69.738C16.2984 69.654 16.0824 69.612 15.8384 69.612ZM23.9913 75C23.8393 75 23.7433 74.926 23.7033 74.778L23.6073 74.04C23.3473 74.356 23.0493 74.61 22.7133 74.802C22.3813 74.99 21.9993 75.084 21.5673 75.084C21.2193 75.084 20.9033 75.018 20.6193 74.886C20.3353 74.75 20.0933 74.552 19.8933 74.292C19.6933 74.032 19.5393 73.708 19.4313 73.32C19.3233 72.932 19.2693 72.486 19.2693 71.982C19.2693 71.534 19.3293 71.118 19.4493 70.734C19.5693 70.346 19.7413 70.01 19.9653 69.726C20.1933 69.442 20.4693 69.22 20.7933 69.06C21.1173 68.896 21.4853 68.814 21.8973 68.814C22.2693 68.814 22.5873 68.878 22.8513 69.006C23.1153 69.13 23.3513 69.306 23.5593 69.534V66.162H24.6273V75H23.9913ZM21.9213 74.22C22.2693 74.22 22.5733 74.14 22.8333 73.98C23.0973 73.82 23.3393 73.594 23.5593 73.302V70.362C23.3633 70.098 23.1473 69.914 22.9113 69.81C22.6793 69.702 22.4213 69.648 22.1373 69.648C21.5693 69.648 21.1333 69.85 20.8293 70.254C20.5253 70.658 20.3733 71.234 20.3733 71.982C20.3733 72.378 20.4073 72.718 20.4753 73.002C20.5433 73.282 20.6433 73.514 20.7753 73.698C20.9073 73.878 21.0693 74.01 21.2613 74.094C21.4533 74.178 21.6733 74.22 21.9213 74.22ZM27.6165 68.922V75H26.5485V68.922H27.6165ZM27.8565 67.014C27.8565 67.118 27.8345 67.216 27.7905 67.308C27.7505 67.396 27.6945 67.476 27.6225 67.548C27.5545 67.616 27.4745 67.67 27.3825 67.71C27.2905 67.75 27.1925 67.77 27.0885 67.77C26.9845 67.77 26.8865 67.75 26.7945 67.71C26.7065 67.67 26.6265 67.616 26.5545 67.548C26.4865 67.476 26.4325 67.396 26.3925 67.308C26.3525 67.216 26.3325 67.118 26.3325 67.014C26.3325 66.91 26.3525 66.812 26.3925 66.72C26.4325 66.624 26.4865 66.542 26.5545 66.474C26.6265 66.402 26.7065 66.346 26.7945 66.306C26.8865 66.266 26.9845 66.246 27.0885 66.246C27.1925 66.246 27.2905 66.266 27.3825 66.306C27.4745 66.346 27.5545 66.402 27.6225 66.474C27.6945 66.542 27.7505 66.624 27.7905 66.72C27.8345 66.812 27.8565 66.91 27.8565 67.014ZM33.6568 70.002C33.6248 70.046 33.5928 70.08 33.5608 70.104C33.5288 70.128 33.4828 70.14 33.4228 70.14C33.3628 70.14 33.2968 70.116 33.2248 70.068C33.1568 70.016 33.0688 69.96 32.9608 69.9C32.8528 69.84 32.7208 69.786 32.5648 69.738C32.4128 69.686 32.2248 69.66 32.0008 69.66C31.7048 69.66 31.4428 69.714 31.2148 69.822C30.9868 69.926 30.7948 70.078 30.6388 70.278C30.4868 70.478 30.3708 70.72 30.2908 71.004C30.2148 71.288 30.1768 71.606 30.1768 71.958C30.1768 72.326 30.2188 72.654 30.3028 72.942C30.3868 73.226 30.5048 73.466 30.6568 73.662C30.8088 73.854 30.9928 74.002 31.2088 74.106C31.4288 74.206 31.6748 74.256 31.9468 74.256C32.2068 74.256 32.4208 74.226 32.5888 74.166C32.7568 74.102 32.8968 74.032 33.0088 73.956C33.1208 73.88 33.2128 73.812 33.2848 73.752C33.3568 73.688 33.4288 73.656 33.5008 73.656C33.5928 73.656 33.6608 73.69 33.7048 73.758L34.0048 74.148C33.7408 74.472 33.4108 74.71 33.0148 74.862C32.6188 75.01 32.2008 75.084 31.7608 75.084C31.3808 75.084 31.0268 75.014 30.6988 74.874C30.3748 74.734 30.0928 74.532 29.8528 74.268C29.6128 74 29.4228 73.672 29.2828 73.284C29.1468 72.896 29.0788 72.454 29.0788 71.958C29.0788 71.506 29.1408 71.088 29.2648 70.704C29.3928 70.32 29.5768 69.99 29.8168 69.714C30.0608 69.434 30.3608 69.216 30.7168 69.06C31.0728 68.904 31.4808 68.826 31.9408 68.826C32.3648 68.826 32.7408 68.896 33.0688 69.036C33.3968 69.172 33.6868 69.366 33.9388 69.618L33.6568 70.002ZM36.3123 68.922V75H35.2443V68.922H36.3123ZM36.5523 67.014C36.5523 67.118 36.5303 67.216 36.4863 67.308C36.4463 67.396 36.3903 67.476 36.3183 67.548C36.2503 67.616 36.1703 67.67 36.0783 67.71C35.9863 67.75 35.8883 67.77 35.7843 67.77C35.6803 67.77 35.5823 67.75 35.4903 67.71C35.4023 67.67 35.3223 67.616 35.2503 67.548C35.1823 67.476 35.1283 67.396 35.0883 67.308C35.0483 67.216 35.0283 67.118 35.0283 67.014C35.0283 66.91 35.0483 66.812 35.0883 66.72C35.1283 66.624 35.1823 66.542 35.2503 66.474C35.3223 66.402 35.4023 66.346 35.4903 66.306C35.5823 66.266 35.6803 66.246 35.7843 66.246C35.8883 66.246 35.9863 66.266 36.0783 66.306C36.1703 66.346 36.2503 66.402 36.3183 66.474C36.3903 66.542 36.4463 66.624 36.4863 66.72C36.5303 66.812 36.5523 66.91 36.5523 67.014ZM38.2066 75V68.922H38.8426C38.9946 68.922 39.0906 68.996 39.1306 69.144L39.2146 69.804C39.4786 69.512 39.7726 69.276 40.0966 69.096C40.4246 68.916 40.8026 68.826 41.2306 68.826C41.5626 68.826 41.8546 68.882 42.1066 68.994C42.3626 69.102 42.5746 69.258 42.7426 69.462C42.9146 69.662 43.0446 69.904 43.1326 70.188C43.2206 70.472 43.2646 70.786 43.2646 71.13V75H42.1966V71.13C42.1966 70.67 42.0906 70.314 41.8786 70.062C41.6706 69.806 41.3506 69.678 40.9186 69.678C40.6026 69.678 40.3066 69.754 40.0306 69.906C39.7586 70.058 39.5066 70.264 39.2746 70.524V75H38.2066ZM47.2926 68.826C47.6566 68.826 47.9926 68.888 48.3006 69.012C48.6086 69.132 48.8746 69.308 49.0986 69.54C49.3226 69.768 49.4966 70.052 49.6206 70.392C49.7486 70.728 49.8126 71.112 49.8126 71.544C49.8126 71.712 49.7946 71.824 49.7586 71.88C49.7226 71.936 49.6546 71.964 49.5546 71.964H45.5106C45.5186 72.348 45.5706 72.682 45.6666 72.966C45.7626 73.25 45.8946 73.488 46.0626 73.68C46.2306 73.868 46.4306 74.01 46.6626 74.106C46.8946 74.198 47.1546 74.244 47.4426 74.244C47.7106 74.244 47.9406 74.214 48.1326 74.154C48.3286 74.09 48.4966 74.022 48.6366 73.95C48.7766 73.878 48.8926 73.812 48.9846 73.752C49.0806 73.688 49.1626 73.656 49.2306 73.656C49.3186 73.656 49.3866 73.69 49.4346 73.758L49.7346 74.148C49.6026 74.308 49.4446 74.448 49.2606 74.568C49.0766 74.684 48.8786 74.78 48.6666 74.856C48.4586 74.932 48.2426 74.988 48.0186 75.024C47.7946 75.064 47.5726 75.084 47.3526 75.084C46.9326 75.084 46.5446 75.014 46.1886 74.874C45.8366 74.73 45.5306 74.522 45.2706 74.25C45.0146 73.974 44.8146 73.634 44.6706 73.23C44.5266 72.826 44.4546 72.362 44.4546 71.838C44.4546 71.414 44.5186 71.018 44.6466 70.65C44.7786 70.282 44.9666 69.964 45.2106 69.696C45.4546 69.424 45.7526 69.212 46.1046 69.06C46.4566 68.904 46.8526 68.826 47.2926 68.826ZM47.3166 69.612C46.8006 69.612 46.3946 69.762 46.0986 70.062C45.8026 70.358 45.6186 70.77 45.5466 71.298H48.8526C48.8526 71.05 48.8186 70.824 48.7506 70.62C48.6826 70.412 48.5826 70.234 48.4506 70.086C48.3186 69.934 48.1566 69.818 47.9646 69.738C47.7766 69.654 47.5606 69.612 47.3166 69.612ZM54.6716 69.924C54.6236 70.012 54.5496 70.056 54.4496 70.056C54.3896 70.056 54.3216 70.034 54.2456 69.99C54.1696 69.946 54.0756 69.898 53.9636 69.846C53.8556 69.79 53.7256 69.74 53.5736 69.696C53.4216 69.648 53.2416 69.624 53.0336 69.624C52.8536 69.624 52.6916 69.648 52.5476 69.696C52.4036 69.74 52.2796 69.802 52.1756 69.882C52.0756 69.962 51.9976 70.056 51.9416 70.164C51.8896 70.268 51.8636 70.382 51.8636 70.506C51.8636 70.662 51.9076 70.792 51.9956 70.896C52.0876 71 52.2076 71.09 52.3556 71.166C52.5036 71.242 52.6716 71.31 52.8596 71.37C53.0476 71.426 53.2396 71.488 53.4356 71.556C53.6356 71.62 53.8296 71.692 54.0176 71.772C54.2056 71.852 54.3736 71.952 54.5216 72.072C54.6696 72.192 54.7876 72.34 54.8756 72.516C54.9676 72.688 55.0136 72.896 55.0136 73.14C55.0136 73.42 54.9636 73.68 54.8636 73.92C54.7636 74.156 54.6156 74.362 54.4196 74.538C54.2236 74.71 53.9836 74.846 53.6996 74.946C53.4156 75.046 53.0876 75.096 52.7156 75.096C52.2916 75.096 51.9076 75.028 51.5636 74.892C51.2196 74.752 50.9276 74.574 50.6876 74.358L50.9396 73.95C50.9716 73.898 51.0096 73.858 51.0536 73.83C51.0976 73.802 51.1556 73.788 51.2276 73.788C51.2996 73.788 51.3756 73.816 51.4556 73.872C51.5356 73.928 51.6316 73.99 51.7436 74.058C51.8596 74.126 51.9976 74.188 52.1576 74.244C52.3216 74.3 52.5256 74.328 52.7696 74.328C52.9776 74.328 53.1596 74.302 53.3156 74.25C53.4716 74.194 53.6016 74.12 53.7056 74.028C53.8096 73.936 53.8856 73.83 53.9336 73.71C53.9856 73.59 54.0116 73.462 54.0116 73.326C54.0116 73.158 53.9656 73.02 53.8736 72.912C53.7856 72.8 53.6676 72.706 53.5196 72.63C53.3716 72.55 53.2016 72.482 53.0096 72.426C52.8216 72.366 52.6276 72.304 52.4276 72.24C52.2316 72.176 52.0376 72.104 51.8456 72.024C51.6576 71.94 51.4896 71.836 51.3416 71.712C51.1936 71.588 51.0736 71.436 50.9816 71.256C50.8936 71.072 50.8496 70.85 50.8496 70.59C50.8496 70.358 50.8976 70.136 50.9936 69.924C51.0896 69.708 51.2296 69.52 51.4136 69.36C51.5976 69.196 51.8236 69.066 52.0916 68.97C52.3596 68.874 52.6656 68.826 53.0096 68.826C53.4096 68.826 53.7676 68.89 54.0836 69.018C54.4036 69.142 54.6796 69.314 54.9116 69.534L54.6716 69.924Z" fill="#25282B"/>
<mask id="mask0_10_1481" style="mask-type:alpha" maskUnits="userSpaceOnUse" x="0" y="0" width="56" height="56">
<rect width="56" height="56" rx="8" fill="#4485FD"/>
</mask>
<g mask="url(#mask0_10_1481)">
<circle r="19" fill="#1AD37A"/>
</g>
<path d="M33.5744 16H22.4531C21.9981 16 21.6293 16.3688 21.6293 16.8238V20.8604C21.6293 21.3154 21.9981 21.6842 22.4531 21.6842H33.5744C34.0294 21.6842 34.3981 21.3154 34.3981 20.8604V16.8238C34.3981 16.3688 34.0294 16 33.5744 16ZM32.7506 20.0366H23.2769V17.6476H32.7505V20.0366H32.7506Z" fill="white"/>
<path d="M32.3936 20.888H30.746V24.6775H32.3936V20.888Z" fill="white"/>
<path d="M25.254 20.888H23.6064V24.6775H25.254V20.888Z" fill="white"/>
<path d="M33.9863 23.8535H22.0137C21.2567 23.8535 20.6407 24.4694 20.6407 25.2265V38.627C20.6407 39.384 21.2567 40 22.0137 40H33.9863C34.7433 40 35.3593 39.384 35.3593 38.627V25.2265C35.3593 24.4694 34.7433 23.8535 33.9863 23.8535ZM33.7117 38.3524H22.2883V25.5011H33.7117V38.3524Z" fill="white"/>
<path d="M28 28.1647C27.545 28.1647 27.1762 28.5335 27.1762 28.9885V34.8649C27.1762 35.3199 27.545 35.6887 28 35.6887C28.455 35.6887 28.8238 35.3199 28.8238 34.8649V28.9885C28.8238 28.5335 28.455 28.1647 28 28.1647Z" fill="white"/>
<path d="M30.9382 31.103H25.0618C24.6068 31.103 24.238 31.4718 24.238 31.9268C24.238 32.3818 24.6068 32.7506 25.0618 32.7506H30.9382C31.3935 32.7506 31.762 32.3818 31.762 31.9268C31.762 31.4718 31.3932 31.103 30.9382 31.103Z" fill="white"/>
</svg>
