<svg width="56" height="81" viewBox="0 0 56 81" fill="none" xmlns="http://www.w3.org/2000/svg">
<rect width="56" height="56" rx="8" fill="#00C9E4"/>
<path d="M5.44783 71.784V75H4.28983V66.402H6.82783C7.37183 66.402 7.84383 66.466 8.24383 66.594C8.64783 66.718 8.98183 66.896 9.24583 67.128C9.50983 67.36 9.70583 67.64 9.83383 67.968C9.96583 68.296 10.0318 68.662 10.0318 69.066C10.0318 69.466 9.96183 69.832 9.82183 70.164C9.68183 70.496 9.47583 70.782 9.20383 71.022C8.93583 71.262 8.60183 71.45 8.20183 71.586C7.80183 71.718 7.34383 71.784 6.82783 71.784H5.44783ZM5.44783 70.86H6.82783C7.15983 70.86 7.45183 70.816 7.70383 70.728C7.95983 70.64 8.17383 70.518 8.34583 70.362C8.51783 70.202 8.64783 70.012 8.73583 69.792C8.82383 69.572 8.86783 69.33 8.86783 69.066C8.86783 68.518 8.69783 68.09 8.35783 67.782C8.02183 67.474 7.51183 67.32 6.82783 67.32H5.44783V70.86ZM11.3498 75V66.162H12.4178V69.738C12.6778 69.462 12.9658 69.242 13.2818 69.078C13.5978 68.91 13.9618 68.826 14.3738 68.826C14.7058 68.826 14.9978 68.882 15.2498 68.994C15.5058 69.102 15.7178 69.258 15.8858 69.462C16.0578 69.662 16.1878 69.904 16.2758 70.188C16.3638 70.472 16.4078 70.786 16.4078 71.13V75H15.3398V71.13C15.3398 70.67 15.2338 70.314 15.0218 70.062C14.8138 69.806 14.4938 69.678 14.0618 69.678C13.7458 69.678 13.4498 69.754 13.1738 69.906C12.9018 70.058 12.6498 70.264 12.4178 70.524V75H11.3498ZM19.6242 76.794C19.5882 76.874 19.5422 76.938 19.4862 76.986C19.4342 77.034 19.3522 77.058 19.2402 77.058H18.4482L19.5582 74.646L17.0502 68.922H17.9742C18.0662 68.922 18.1382 68.946 18.1902 68.994C18.2422 69.038 18.2802 69.088 18.3042 69.144L19.9302 72.972C19.9662 73.06 19.9962 73.148 20.0202 73.236C20.0482 73.324 20.0722 73.414 20.0922 73.506C20.1202 73.414 20.1482 73.324 20.1762 73.236C20.2042 73.148 20.2362 73.058 20.2722 72.966L21.8502 69.144C21.8742 69.08 21.9142 69.028 21.9702 68.988C22.0302 68.944 22.0942 68.922 22.1622 68.922H23.0142L19.6242 76.794ZM27.4749 69.924C27.4269 70.012 27.3529 70.056 27.2529 70.056C27.1929 70.056 27.1249 70.034 27.0489 69.99C26.9729 69.946 26.8789 69.898 26.7669 69.846C26.6589 69.79 26.5289 69.74 26.3769 69.696C26.2249 69.648 26.0449 69.624 25.8369 69.624C25.6569 69.624 25.4949 69.648 25.3509 69.696C25.2069 69.74 25.0829 69.802 24.9789 69.882C24.8789 69.962 24.8009 70.056 24.7449 70.164C24.6929 70.268 24.6669 70.382 24.6669 70.506C24.6669 70.662 24.7109 70.792 24.7989 70.896C24.8909 71 25.0109 71.09 25.1589 71.166C25.3069 71.242 25.4749 71.31 25.6629 71.37C25.8509 71.426 26.0429 71.488 26.2389 71.556C26.4389 71.62 26.6329 71.692 26.8209 71.772C27.0089 71.852 27.1769 71.952 27.3249 72.072C27.4729 72.192 27.5909 72.34 27.6789 72.516C27.7709 72.688 27.8169 72.896 27.8169 73.14C27.8169 73.42 27.7669 73.68 27.6669 73.92C27.5669 74.156 27.4189 74.362 27.2229 74.538C27.0269 74.71 26.7869 74.846 26.5029 74.946C26.2189 75.046 25.8909 75.096 25.5189 75.096C25.0949 75.096 24.7109 75.028 24.3669 74.892C24.0229 74.752 23.7309 74.574 23.4909 74.358L23.7429 73.95C23.7749 73.898 23.8129 73.858 23.8569 73.83C23.9009 73.802 23.9589 73.788 24.0309 73.788C24.1029 73.788 24.1789 73.816 24.2589 73.872C24.3389 73.928 24.4349 73.99 24.5469 74.058C24.6629 74.126 24.8009 74.188 24.9609 74.244C25.1249 74.3 25.3289 74.328 25.5729 74.328C25.7809 74.328 25.9629 74.302 26.1189 74.25C26.2749 74.194 26.4049 74.12 26.5089 74.028C26.6129 73.936 26.6889 73.83 26.7369 73.71C26.7889 73.59 26.8149 73.462 26.8149 73.326C26.8149 73.158 26.7689 73.02 26.6769 72.912C26.5889 72.8 26.4709 72.706 26.3229 72.63C26.1749 72.55 26.0049 72.482 25.8129 72.426C25.6249 72.366 25.4309 72.304 25.2309 72.24C25.0349 72.176 24.8409 72.104 24.6489 72.024C24.4609 71.94 24.2929 71.836 24.1449 71.712C23.9969 71.588 23.8769 71.436 23.7849 71.256C23.6969 71.072 23.6529 70.85 23.6529 70.59C23.6529 70.358 23.7009 70.136 23.7969 69.924C23.8929 69.708 24.0329 69.52 24.2169 69.36C24.4009 69.196 24.6269 69.066 24.8949 68.97C25.1629 68.874 25.4689 68.826 25.8129 68.826C26.2129 68.826 26.5709 68.89 26.8869 69.018C27.2069 69.142 27.4829 69.314 27.7149 69.534L27.4749 69.924ZM30.398 68.922V75H29.33V68.922H30.398ZM30.638 67.014C30.638 67.118 30.616 67.216 30.572 67.308C30.532 67.396 30.476 67.476 30.404 67.548C30.336 67.616 30.256 67.67 30.164 67.71C30.072 67.75 29.974 67.77 29.87 67.77C29.766 67.77 29.668 67.75 29.576 67.71C29.488 67.67 29.408 67.616 29.336 67.548C29.268 67.476 29.214 67.396 29.174 67.308C29.134 67.216 29.114 67.118 29.114 67.014C29.114 66.91 29.134 66.812 29.174 66.72C29.214 66.624 29.268 66.542 29.336 66.474C29.408 66.402 29.488 66.346 29.576 66.306C29.668 66.266 29.766 66.246 29.87 66.246C29.974 66.246 30.072 66.266 30.164 66.306C30.256 66.346 30.336 66.402 30.404 66.474C30.476 66.542 30.532 66.624 30.572 66.72C30.616 66.812 30.638 66.91 30.638 67.014ZM36.4383 70.002C36.4063 70.046 36.3743 70.08 36.3423 70.104C36.3103 70.128 36.2643 70.14 36.2043 70.14C36.1443 70.14 36.0783 70.116 36.0063 70.068C35.9383 70.016 35.8503 69.96 35.7423 69.9C35.6343 69.84 35.5023 69.786 35.3463 69.738C35.1943 69.686 35.0063 69.66 34.7823 69.66C34.4863 69.66 34.2243 69.714 33.9963 69.822C33.7683 69.926 33.5763 70.078 33.4203 70.278C33.2683 70.478 33.1523 70.72 33.0723 71.004C32.9963 71.288 32.9583 71.606 32.9583 71.958C32.9583 72.326 33.0003 72.654 33.0843 72.942C33.1683 73.226 33.2863 73.466 33.4383 73.662C33.5903 73.854 33.7743 74.002 33.9903 74.106C34.2103 74.206 34.4563 74.256 34.7283 74.256C34.9883 74.256 35.2023 74.226 35.3703 74.166C35.5383 74.102 35.6783 74.032 35.7903 73.956C35.9023 73.88 35.9943 73.812 36.0663 73.752C36.1383 73.688 36.2103 73.656 36.2823 73.656C36.3743 73.656 36.4423 73.69 36.4863 73.758L36.7863 74.148C36.5223 74.472 36.1923 74.71 35.7963 74.862C35.4003 75.01 34.9823 75.084 34.5423 75.084C34.1623 75.084 33.8083 75.014 33.4803 74.874C33.1563 74.734 32.8743 74.532 32.6343 74.268C32.3943 74 32.2043 73.672 32.0643 73.284C31.9283 72.896 31.8603 72.454 31.8603 71.958C31.8603 71.506 31.9223 71.088 32.0463 70.704C32.1743 70.32 32.3583 69.99 32.5983 69.714C32.8423 69.434 33.1423 69.216 33.4983 69.06C33.8543 68.904 34.2623 68.826 34.7223 68.826C35.1463 68.826 35.5223 68.896 35.8503 69.036C36.1783 69.172 36.4683 69.366 36.7203 69.618L36.4383 70.002ZM39.0939 68.922V75H38.0259V68.922H39.0939ZM39.3339 67.014C39.3339 67.118 39.3119 67.216 39.2679 67.308C39.2279 67.396 39.1719 67.476 39.0999 67.548C39.0319 67.616 38.9519 67.67 38.8599 67.71C38.7679 67.75 38.6699 67.77 38.5659 67.77C38.4619 67.77 38.3639 67.75 38.2719 67.71C38.1839 67.67 38.1039 67.616 38.0319 67.548C37.9639 67.476 37.9099 67.396 37.8699 67.308C37.8299 67.216 37.8099 67.118 37.8099 67.014C37.8099 66.91 37.8299 66.812 37.8699 66.72C37.9099 66.624 37.9639 66.542 38.0319 66.474C38.1039 66.402 38.1839 66.346 38.2719 66.306C38.3639 66.266 38.4619 66.246 38.5659 66.246C38.6699 66.246 38.7679 66.266 38.8599 66.306C38.9519 66.346 39.0319 66.402 39.0999 66.474C39.1719 66.542 39.2279 66.624 39.2679 66.72C39.3119 66.812 39.3339 66.91 39.3339 67.014ZM45.4522 75H44.9782C44.8742 75 44.7902 74.984 44.7262 74.952C44.6622 74.92 44.6202 74.852 44.6002 74.748L44.4802 74.184C44.3202 74.328 44.1642 74.458 44.0122 74.574C43.8602 74.686 43.7002 74.782 43.5322 74.862C43.3642 74.938 43.1842 74.996 42.9922 75.036C42.8042 75.076 42.5942 75.096 42.3622 75.096C42.1262 75.096 41.9042 75.064 41.6962 75C41.4922 74.932 41.3142 74.832 41.1622 74.7C41.0102 74.568 40.8882 74.402 40.7962 74.202C40.7082 73.998 40.6642 73.758 40.6642 73.482C40.6642 73.242 40.7302 73.012 40.8622 72.792C40.9942 72.568 41.2062 72.37 41.4982 72.198C41.7942 72.026 42.1802 71.886 42.6562 71.778C43.1322 71.666 43.7142 71.602 44.4022 71.586V71.112C44.4022 70.64 44.3002 70.284 44.0962 70.044C43.8962 69.8 43.5982 69.678 43.2022 69.678C42.9422 69.678 42.7222 69.712 42.5422 69.78C42.3662 69.844 42.2122 69.918 42.0802 70.002C41.9522 70.082 41.8402 70.156 41.7442 70.224C41.6522 70.288 41.5602 70.32 41.4682 70.32C41.3962 70.32 41.3322 70.302 41.2762 70.266C41.2242 70.226 41.1822 70.178 41.1502 70.122L40.9582 69.78C41.2942 69.456 41.6562 69.214 42.0442 69.054C42.4322 68.894 42.8622 68.814 43.3342 68.814C43.6742 68.814 43.9762 68.87 44.2402 68.982C44.5042 69.094 44.7262 69.25 44.9062 69.45C45.0862 69.65 45.2222 69.892 45.3142 70.176C45.4062 70.46 45.4522 70.772 45.4522 71.112V75ZM42.6802 74.346C42.8682 74.346 43.0402 74.328 43.1962 74.292C43.3522 74.252 43.4982 74.198 43.6342 74.13C43.7742 74.058 43.9062 73.972 44.0302 73.872C44.1582 73.772 44.2822 73.658 44.4022 73.53V72.264C43.9102 72.28 43.4922 72.32 43.1482 72.384C42.8042 72.444 42.5242 72.524 42.3082 72.624C42.0922 72.724 41.9342 72.842 41.8342 72.978C41.7382 73.114 41.6902 73.266 41.6902 73.434C41.6902 73.594 41.7162 73.732 41.7682 73.848C41.8202 73.964 41.8902 74.06 41.9782 74.136C42.0662 74.208 42.1702 74.262 42.2902 74.298C42.4102 74.33 42.5402 74.346 42.6802 74.346ZM47.0822 75V68.922H47.7182C47.8702 68.922 47.9662 68.996 48.0062 69.144L48.0902 69.804C48.3542 69.512 48.6482 69.276 48.9722 69.096C49.3002 68.916 49.6782 68.826 50.1062 68.826C50.4382 68.826 50.7302 68.882 50.9822 68.994C51.2382 69.102 51.4502 69.258 51.6182 69.462C51.7902 69.662 51.9202 69.904 52.0082 70.188C52.0962 70.472 52.1402 70.786 52.1402 71.13V75H51.0722V71.13C51.0722 70.67 50.9662 70.314 50.7542 70.062C50.5462 69.806 50.2262 69.678 49.7942 69.678C49.4782 69.678 49.1822 69.754 48.9062 69.906C48.6342 70.058 48.3822 70.264 48.1502 70.524V75H47.0822Z" fill="#25282B"/>
<g clip-path="url(#clip0_10_1480)">
<path d="M38.9939 31.0476C38.9729 31.0196 38.9503 30.9935 38.9261 30.9684C38.2284 30.096 36.9672 29.9208 36.0878 30.581C34.8203 31.5151 32.6518 33.0871 31.928 33.6117L28.7664 33.3638L30.7008 32.9404C31.737 32.7897 32.4799 31.8754 32.435 30.7962C32.4347 30.7848 32.4339 30.7733 32.4328 30.7622C32.343 29.6838 31.4668 28.8708 30.395 28.8708H24.5446C24.0693 28.8708 23.6258 28.9924 23.2263 29.2321C23.2103 29.2419 23.1945 29.252 23.1789 29.2629L16.9477 33.6166C16.5781 33.8749 16.4878 34.384 16.746 34.7532C17.004 35.123 17.5133 35.2136 17.8826 34.9548L24.0878 30.6193C24.226 30.5412 24.3757 30.5028 24.5449 30.5028H30.3952C30.6123 30.5028 30.7783 30.6574 30.8045 30.8805C30.8064 31.0769 30.7005 31.2952 30.4573 31.3257C30.4328 31.3287 30.4083 31.3327 30.384 31.3382L26.901 32.1001C26.6292 32.1597 26.4064 32.3534 26.3098 32.6143C26.2132 32.8756 26.2561 33.1678 26.4241 33.3898L27.3492 34.6143C27.4899 34.8007 27.7038 34.918 27.9367 34.9362L32.1 35.2627C32.2926 35.2766 32.4855 35.2235 32.6423 35.1101C32.6708 35.0894 35.5201 33.0271 37.0616 31.891C37.2376 31.7591 37.5176 31.8091 37.6599 31.9996C37.6757 32.0205 37.6926 32.0409 37.7103 32.06C37.8199 32.2393 37.778 32.4693 37.6042 32.5996L32.0823 36.7616C31.9199 36.8833 31.7506 36.9295 31.5571 36.9039L23.5027 35.8971C23.2829 35.8697 23.0619 35.9325 22.8894 36.0713L19.8146 38.5477C19.4633 38.8307 19.408 39.3448 19.6908 39.6958C19.8519 39.896 20.0883 40 20.327 40C20.5068 40 20.6878 39.9409 20.8383 39.8198L23.6435 37.5605L31.3477 38.5235C31.9621 38.6054 32.5542 38.4478 33.0628 38.0669L38.5855 33.905C39.4859 33.2296 39.669 31.948 38.9939 31.0476Z" fill="white"/>
<path d="M31.7278 18.83C31.2769 18.83 30.9115 19.1955 30.9115 19.6463V24.5443C30.9115 24.9952 31.2769 25.3606 31.7278 25.3606C32.1787 25.3606 32.5441 24.9952 32.5441 24.5443V19.6463C32.5441 19.1955 32.1787 18.83 31.7278 18.83Z" fill="white"/>
<path d="M34.1768 21.2788H29.2788C28.8279 21.2788 28.4625 21.6442 28.4625 22.0951C28.4625 22.546 28.8279 22.9114 29.2788 22.9114H34.1768C34.6276 22.9114 34.9931 22.546 34.9931 22.0951C34.9931 21.6442 34.6276 21.2788 34.1768 21.2788Z" fill="white"/>
<path d="M31.7278 16C28.3667 16 25.6328 18.7342 25.6328 22.0953C25.6328 25.4563 28.3667 28.1905 31.7278 28.1905C35.0886 28.1905 37.823 25.4564 37.823 22.0953C37.823 18.7341 35.0889 16 31.7278 16ZM31.7278 26.5578C29.2671 26.5578 27.2655 24.556 27.2655 22.0953C27.2655 19.6345 29.2671 17.6327 31.7278 17.6327C34.1884 17.6327 36.1904 19.6345 36.1904 22.0953C36.1904 24.556 34.1885 26.5578 31.7278 26.5578Z" fill="white"/>
</g>
<mask id="mask0_10_1480" style="mask-type:alpha" maskUnits="userSpaceOnUse" x="0" y="0" width="56" height="56">
<rect width="56" height="56" rx="8" fill="#4485FD"/>
</mask>
<g mask="url(#mask0_10_1480)">
<circle r="19" fill="#05D1ED"/>
</g>
<defs>
<clipPath id="clip0_10_1480">
<rect width="24" height="24" fill="white" transform="translate(16 16)"/>
</clipPath>
</defs>
</svg>
