<svg width="56" height="81" viewBox="0 0 56 81" fill="none" xmlns="http://www.w3.org/2000/svg">
<rect width="56" height="56" rx="8" fill="#FD4444"/>
<path d="M11.5975 67.746C11.5615 67.806 11.5235 67.852 11.4835 67.884C11.4435 67.912 11.3915 67.926 11.3275 67.926C11.2595 67.926 11.1795 67.892 11.0875 67.824C10.9995 67.756 10.8855 67.682 10.7455 67.602C10.6095 67.518 10.4435 67.442 10.2475 67.374C10.0555 67.306 9.82155 67.272 9.54555 67.272C9.28555 67.272 9.05555 67.308 8.85555 67.38C8.65555 67.448 8.48755 67.542 8.35155 67.662C8.21955 67.782 8.11955 67.924 8.05155 68.088C7.98355 68.248 7.94955 68.422 7.94955 68.61C7.94955 68.85 8.00755 69.05 8.12355 69.21C8.24355 69.366 8.39955 69.5 8.59155 69.612C8.78755 69.724 9.00755 69.822 9.25155 69.906C9.49955 69.986 9.75155 70.07 10.0075 70.158C10.2675 70.246 10.5195 70.346 10.7635 70.458C11.0115 70.566 11.2315 70.704 11.4235 70.872C11.6195 71.04 11.7755 71.246 11.8915 71.49C12.0115 71.734 12.0715 72.034 12.0715 72.39C12.0715 72.766 12.0075 73.12 11.8795 73.452C11.7515 73.78 11.5635 74.066 11.3155 74.31C11.0715 74.554 10.7695 74.746 10.4095 74.886C10.0535 75.026 9.64755 75.096 9.19155 75.096C8.63555 75.096 8.12755 74.996 7.66755 74.796C7.21155 74.592 6.82155 74.318 6.49755 73.974L6.83355 73.422C6.86555 73.378 6.90355 73.342 6.94755 73.314C6.99555 73.282 7.04755 73.266 7.10355 73.266C7.18755 73.266 7.28355 73.312 7.39155 73.404C7.49955 73.492 7.63355 73.59 7.79355 73.698C7.95755 73.806 8.15355 73.906 8.38155 73.998C8.61355 74.086 8.89555 74.13 9.22755 74.13C9.50355 74.13 9.74955 74.092 9.96555 74.016C10.1815 73.94 10.3635 73.834 10.5115 73.698C10.6635 73.558 10.7795 73.392 10.8595 73.2C10.9395 73.008 10.9795 72.794 10.9795 72.558C10.9795 72.298 10.9195 72.086 10.7995 71.922C10.6835 71.754 10.5295 71.614 10.3375 71.502C10.1455 71.39 9.92555 71.296 9.67755 71.22C9.43355 71.14 9.18155 71.06 8.92155 70.98C8.66555 70.896 8.41355 70.8 8.16555 70.692C7.92155 70.584 7.70355 70.444 7.51155 70.272C7.31955 70.1 7.16355 69.886 7.04355 69.63C6.92755 69.37 6.86955 69.05 6.86955 68.67C6.86955 68.366 6.92755 68.072 7.04355 67.788C7.16355 67.504 7.33555 67.252 7.55955 67.032C7.78355 66.812 8.05955 66.636 8.38755 66.504C8.71955 66.372 9.09955 66.306 9.52755 66.306C10.0075 66.306 10.4455 66.382 10.8415 66.534C11.2375 66.686 11.5835 66.906 11.8795 67.194L11.5975 67.746ZM14.3248 68.922V72.798C14.3248 73.258 14.4308 73.614 14.6428 73.866C14.8548 74.118 15.1748 74.244 15.6028 74.244C15.9148 74.244 16.2088 74.17 16.4848 74.022C16.7608 73.874 17.0148 73.668 17.2468 73.404V68.922H18.3148V75H17.6788C17.5268 75 17.4308 74.926 17.3908 74.778L17.3068 74.124C17.0428 74.416 16.7468 74.652 16.4188 74.832C16.0908 75.008 15.7148 75.096 15.2908 75.096C14.9588 75.096 14.6648 75.042 14.4088 74.934C14.1568 74.822 13.9448 74.666 13.7728 74.466C13.6008 74.266 13.4708 74.024 13.3828 73.74C13.2988 73.456 13.2568 73.142 13.2568 72.798V68.922H14.3248ZM20.0808 75V68.922H20.6928C20.8088 68.922 20.8888 68.944 20.9328 68.988C20.9768 69.032 21.0068 69.108 21.0228 69.216L21.0948 70.164C21.3028 69.74 21.5588 69.41 21.8628 69.174C22.1708 68.934 22.5308 68.814 22.9428 68.814C23.1108 68.814 23.2628 68.834 23.3988 68.874C23.5348 68.91 23.6608 68.962 23.7768 69.03L23.6388 69.828C23.6108 69.928 23.5488 69.978 23.4528 69.978C23.3968 69.978 23.3108 69.96 23.1948 69.924C23.0788 69.884 22.9168 69.864 22.7088 69.864C22.3368 69.864 22.0248 69.972 21.7728 70.188C21.5248 70.404 21.3168 70.718 21.1488 71.13V75H20.0808ZM26.9786 68.82C27.2426 68.82 27.4886 68.85 27.7166 68.91C27.9486 68.966 28.1586 69.05 28.3466 69.162H29.9966V69.558C29.9966 69.69 29.9126 69.774 29.7446 69.81L29.0546 69.906C29.1906 70.166 29.2586 70.456 29.2586 70.776C29.2586 71.072 29.2006 71.342 29.0846 71.586C28.9726 71.826 28.8146 72.032 28.6106 72.204C28.4106 72.376 28.1706 72.508 27.8906 72.6C27.6146 72.692 27.3106 72.738 26.9786 72.738C26.6946 72.738 26.4266 72.704 26.1746 72.636C26.0466 72.716 25.9486 72.802 25.8806 72.894C25.8166 72.986 25.7846 73.076 25.7846 73.164C25.7846 73.308 25.8426 73.418 25.9586 73.494C26.0746 73.566 26.2286 73.618 26.4206 73.65C26.6126 73.682 26.8306 73.702 27.0746 73.71C27.3186 73.718 27.5666 73.732 27.8186 73.752C28.0746 73.768 28.3246 73.798 28.5686 73.842C28.8126 73.886 29.0306 73.958 29.2226 74.058C29.4146 74.158 29.5686 74.296 29.6846 74.472C29.8006 74.648 29.8586 74.876 29.8586 75.156C29.8586 75.416 29.7926 75.668 29.6606 75.912C29.5326 76.156 29.3466 76.372 29.1026 76.56C28.8586 76.752 28.5606 76.904 28.2086 77.016C27.8566 77.132 27.4586 77.19 27.0146 77.19C26.5706 77.19 26.1806 77.146 25.8446 77.058C25.5126 76.97 25.2366 76.852 25.0166 76.704C24.7966 76.556 24.6306 76.384 24.5186 76.188C24.4106 75.996 24.3566 75.794 24.3566 75.582C24.3566 75.282 24.4506 75.028 24.6386 74.82C24.8306 74.608 25.0926 74.44 25.4246 74.316C25.2526 74.236 25.1146 74.13 25.0106 73.998C24.9106 73.862 24.8606 73.682 24.8606 73.458C24.8606 73.37 24.8766 73.28 24.9086 73.188C24.9406 73.092 24.9886 72.998 25.0526 72.906C25.1206 72.814 25.2026 72.726 25.2986 72.642C25.3946 72.558 25.5066 72.484 25.6346 72.42C25.3346 72.252 25.0986 72.03 24.9266 71.754C24.7586 71.474 24.6746 71.148 24.6746 70.776C24.6746 70.48 24.7306 70.212 24.8426 69.972C24.9586 69.728 25.1186 69.522 25.3226 69.354C25.5266 69.182 25.7686 69.05 26.0486 68.958C26.3326 68.866 26.6426 68.82 26.9786 68.82ZM28.8746 75.33C28.8746 75.178 28.8326 75.056 28.7486 74.964C28.6646 74.872 28.5506 74.802 28.4066 74.754C28.2626 74.702 28.0966 74.664 27.9086 74.64C27.7206 74.616 27.5226 74.6 27.3146 74.592C27.1066 74.58 26.8946 74.568 26.6786 74.556C26.4626 74.544 26.2566 74.522 26.0606 74.49C25.8326 74.598 25.6466 74.73 25.5026 74.886C25.3626 75.042 25.2926 75.228 25.2926 75.444C25.2926 75.58 25.3266 75.706 25.3946 75.822C25.4666 75.942 25.5746 76.044 25.7186 76.128C25.8626 76.216 26.0426 76.284 26.2586 76.332C26.4786 76.384 26.7366 76.41 27.0326 76.41C27.3206 76.41 27.5786 76.384 27.8066 76.332C28.0346 76.28 28.2266 76.206 28.3826 76.11C28.5426 76.014 28.6646 75.9 28.7486 75.768C28.8326 75.636 28.8746 75.49 28.8746 75.33ZM26.9786 72.03C27.1946 72.03 27.3846 72 27.5486 71.94C27.7166 71.88 27.8566 71.796 27.9686 71.688C28.0806 71.58 28.1646 71.452 28.2206 71.304C28.2766 71.152 28.3046 70.986 28.3046 70.806C28.3046 70.434 28.1906 70.138 27.9626 69.918C27.7386 69.698 27.4106 69.588 26.9786 69.588C26.5506 69.588 26.2226 69.698 25.9946 69.918C25.7706 70.138 25.6586 70.434 25.6586 70.806C25.6586 70.986 25.6866 71.152 25.7426 71.304C25.8026 71.452 25.8886 71.58 26.0006 71.688C26.1126 71.796 26.2506 71.88 26.4146 71.94C26.5786 72 26.7666 72.03 26.9786 72.03ZM33.4795 68.826C33.8435 68.826 34.1795 68.888 34.4875 69.012C34.7955 69.132 35.0615 69.308 35.2855 69.54C35.5095 69.768 35.6835 70.052 35.8075 70.392C35.9355 70.728 35.9995 71.112 35.9995 71.544C35.9995 71.712 35.9815 71.824 35.9455 71.88C35.9095 71.936 35.8415 71.964 35.7415 71.964H31.6975C31.7055 72.348 31.7575 72.682 31.8535 72.966C31.9495 73.25 32.0815 73.488 32.2495 73.68C32.4175 73.868 32.6175 74.01 32.8495 74.106C33.0815 74.198 33.3415 74.244 33.6295 74.244C33.8975 74.244 34.1275 74.214 34.3195 74.154C34.5155 74.09 34.6835 74.022 34.8235 73.95C34.9635 73.878 35.0795 73.812 35.1715 73.752C35.2675 73.688 35.3495 73.656 35.4175 73.656C35.5055 73.656 35.5735 73.69 35.6215 73.758L35.9215 74.148C35.7895 74.308 35.6315 74.448 35.4475 74.568C35.2635 74.684 35.0655 74.78 34.8535 74.856C34.6455 74.932 34.4295 74.988 34.2055 75.024C33.9815 75.064 33.7595 75.084 33.5395 75.084C33.1195 75.084 32.7315 75.014 32.3755 74.874C32.0235 74.73 31.7175 74.522 31.4575 74.25C31.2015 73.974 31.0015 73.634 30.8575 73.23C30.7135 72.826 30.6415 72.362 30.6415 71.838C30.6415 71.414 30.7055 71.018 30.8335 70.65C30.9655 70.282 31.1535 69.964 31.3975 69.696C31.6415 69.424 31.9395 69.212 32.2915 69.06C32.6435 68.904 33.0395 68.826 33.4795 68.826ZM33.5035 69.612C32.9875 69.612 32.5815 69.762 32.2855 70.062C31.9895 70.358 31.8055 70.77 31.7335 71.298H35.0395C35.0395 71.05 35.0055 70.824 34.9375 70.62C34.8695 70.412 34.7695 70.234 34.6375 70.086C34.5055 69.934 34.3435 69.818 34.1515 69.738C33.9635 69.654 33.7475 69.612 33.5035 69.612ZM39.8385 68.826C40.2825 68.826 40.6825 68.9 41.0385 69.048C41.3985 69.196 41.7025 69.406 41.9505 69.678C42.2025 69.95 42.3945 70.28 42.5265 70.668C42.6625 71.052 42.7305 71.482 42.7305 71.958C42.7305 72.438 42.6625 72.87 42.5265 73.254C42.3945 73.638 42.2025 73.966 41.9505 74.238C41.7025 74.51 41.3985 74.72 41.0385 74.868C40.6825 75.012 40.2825 75.084 39.8385 75.084C39.3945 75.084 38.9925 75.012 38.6325 74.868C38.2765 74.72 37.9725 74.51 37.7205 74.238C37.4685 73.966 37.2745 73.638 37.1385 73.254C37.0025 72.87 36.9345 72.438 36.9345 71.958C36.9345 71.482 37.0025 71.052 37.1385 70.668C37.2745 70.28 37.4685 69.95 37.7205 69.678C37.9725 69.406 38.2765 69.196 38.6325 69.048C38.9925 68.9 39.3945 68.826 39.8385 68.826ZM39.8385 74.25C40.4385 74.25 40.8865 74.05 41.1825 73.65C41.4785 73.246 41.6265 72.684 41.6265 71.964C41.6265 71.24 41.4785 70.676 41.1825 70.272C40.8865 69.868 40.4385 69.666 39.8385 69.666C39.5345 69.666 39.2705 69.718 39.0465 69.822C38.8225 69.926 38.6345 70.076 38.4825 70.272C38.3345 70.468 38.2225 70.71 38.1465 70.998C38.0745 71.282 38.0385 71.604 38.0385 71.964C38.0385 72.324 38.0745 72.646 38.1465 72.93C38.2225 73.214 38.3345 73.454 38.4825 73.65C38.6345 73.842 38.8225 73.99 39.0465 74.094C39.2705 74.198 39.5345 74.25 39.8385 74.25ZM44.0585 75V68.922H44.6945C44.8465 68.922 44.9425 68.996 44.9825 69.144L45.0665 69.804C45.3305 69.512 45.6245 69.276 45.9485 69.096C46.2765 68.916 46.6545 68.826 47.0825 68.826C47.4145 68.826 47.7065 68.882 47.9585 68.994C48.2145 69.102 48.4265 69.258 48.5945 69.462C48.7665 69.662 48.8965 69.904 48.9845 70.188C49.0725 70.472 49.1165 70.786 49.1165 71.13V75H48.0485V71.13C48.0485 70.67 47.9425 70.314 47.7305 70.062C47.5225 69.806 47.2025 69.678 46.7705 69.678C46.4545 69.678 46.1585 69.754 45.8825 69.906C45.6105 70.058 45.3585 70.264 45.1265 70.524V75H44.0585Z" fill="#25282B"/>
<g clip-path="url(#clip0_10_1478)">
<path d="M36.3827 23.944L32.0557 19.617C31.7608 19.3224 31.2838 19.3222 30.989 19.6165L19.8444 30.736L20.9105 31.8047L31.5216 21.2175L34.7824 24.4786L24.1955 35.0894L25.2639 36.1556L36.3834 25.0107C36.6775 24.7158 36.6773 24.2384 36.3827 23.944Z" fill="white"/>
<path d="M37.6659 19.3909L36.6094 18.3343C36.3633 18.0883 35.9814 18.0422 35.6841 18.2228L32.0363 20.4367L32.8194 21.727L35.9608 19.8203L36.1797 20.0394L34.2733 23.1808L35.5636 23.9639L37.7774 20.3161C37.958 20.0188 37.912 19.6367 37.6659 19.3909Z" fill="white"/>
<path d="M26.672 36.498L19.5022 29.3282C19.2076 29.0333 18.7296 29.0333 18.4351 29.3282C18.1402 29.6228 18.1402 30.1008 18.4351 30.3953L25.6049 37.5651C25.7521 37.7125 25.9452 37.7862 26.1384 37.7862C26.3314 37.7862 26.5249 37.7125 26.672 37.5651C26.9669 37.2706 26.9669 36.7926 26.672 36.498Z" fill="white"/>
<path d="M26.4836 29.9073L19.4402 36.9766L20.5093 38.0418L27.5527 30.9724L26.4836 29.9073Z" fill="white"/>
<path d="M25.0006 28.4242L17.9573 35.4935L19.0264 36.5587L26.0698 29.4894L25.0006 28.4242Z" fill="white"/>
<path d="M22.2695 38.7117L17.2883 33.7303C16.9935 33.4357 16.5155 33.4353 16.2209 33.7303C15.9263 34.0249 15.9263 34.5026 16.2209 34.7975L21.202 39.7789C21.3494 39.9263 21.5427 40 21.7358 40C21.9288 40 22.1223 39.9263 22.2694 39.7789C22.5641 39.4843 22.5641 39.0066 22.2695 38.7117Z" fill="white"/>
<path d="M39.7789 16.2212C39.4841 15.9264 39.0066 15.9264 38.7117 16.2212L36.0702 18.8627C35.7754 19.1573 35.7754 19.6353 36.0702 19.9299C36.2176 20.0773 36.4106 20.151 36.6038 20.151C36.797 20.151 36.9902 20.0772 37.1374 19.9299L39.7789 17.2884C40.0737 16.9938 40.0737 16.5158 39.7789 16.2212Z" fill="white"/>
<path d="M24.7598 26.9879L23.6925 28.0552L27.9439 32.3066L29.0113 31.2393L24.7598 26.9879Z" fill="white"/>
</g>
<mask id="mask0_10_1478" style="mask-type:alpha" maskUnits="userSpaceOnUse" x="0" y="0" width="56" height="56">
<rect width="56" height="56" rx="8" fill="#4485FD"/>
</mask>
<g mask="url(#mask0_10_1478)">
<circle r="19" fill="#FF7070"/>
</g>
<defs>
<clipPath id="clip0_10_1478">
<rect width="24" height="24" fill="white" transform="translate(16 16)"/>
</clipPath>
</defs>
</svg>
