<svg width="56" height="81" viewBox="0 0 56 81" fill="none" xmlns="http://www.w3.org/2000/svg">
<rect width="56" height="56" rx="8" fill="#FD44B3"/>
<path d="M22.7327 67.746C22.6967 67.806 22.6587 67.852 22.6187 67.884C22.5787 67.912 22.5267 67.926 22.4627 67.926C22.3947 67.926 22.3147 67.892 22.2227 67.824C22.1347 67.756 22.0207 67.682 21.8807 67.602C21.7447 67.518 21.5787 67.442 21.3827 67.374C21.1907 67.306 20.9567 67.272 20.6807 67.272C20.4207 67.272 20.1907 67.308 19.9907 67.38C19.7907 67.448 19.6227 67.542 19.4867 67.662C19.3547 67.782 19.2547 67.924 19.1867 68.088C19.1187 68.248 19.0847 68.422 19.0847 68.61C19.0847 68.85 19.1427 69.05 19.2587 69.21C19.3787 69.366 19.5347 69.5 19.7267 69.612C19.9227 69.724 20.1427 69.822 20.3867 69.906C20.6347 69.986 20.8867 70.07 21.1427 70.158C21.4027 70.246 21.6547 70.346 21.8987 70.458C22.1467 70.566 22.3667 70.704 22.5587 70.872C22.7547 71.04 22.9107 71.246 23.0267 71.49C23.1467 71.734 23.2067 72.034 23.2067 72.39C23.2067 72.766 23.1427 73.12 23.0147 73.452C22.8867 73.78 22.6987 74.066 22.4507 74.31C22.2067 74.554 21.9047 74.746 21.5447 74.886C21.1887 75.026 20.7827 75.096 20.3267 75.096C19.7707 75.096 19.2627 74.996 18.8027 74.796C18.3467 74.592 17.9567 74.318 17.6327 73.974L17.9687 73.422C18.0007 73.378 18.0387 73.342 18.0827 73.314C18.1307 73.282 18.1827 73.266 18.2387 73.266C18.3227 73.266 18.4187 73.312 18.5267 73.404C18.6347 73.492 18.7687 73.59 18.9287 73.698C19.0927 73.806 19.2887 73.906 19.5167 73.998C19.7487 74.086 20.0307 74.13 20.3627 74.13C20.6387 74.13 20.8847 74.092 21.1007 74.016C21.3167 73.94 21.4987 73.834 21.6467 73.698C21.7987 73.558 21.9147 73.392 21.9947 73.2C22.0747 73.008 22.1147 72.794 22.1147 72.558C22.1147 72.298 22.0547 72.086 21.9347 71.922C21.8187 71.754 21.6647 71.614 21.4727 71.502C21.2807 71.39 21.0607 71.296 20.8127 71.22C20.5687 71.14 20.3167 71.06 20.0567 70.98C19.8007 70.896 19.5487 70.8 19.3007 70.692C19.0567 70.584 18.8387 70.444 18.6467 70.272C18.4547 70.1 18.2987 69.886 18.1787 69.63C18.0627 69.37 18.0047 69.05 18.0047 68.67C18.0047 68.366 18.0627 68.072 18.1787 67.788C18.2987 67.504 18.4707 67.252 18.6947 67.032C18.9187 66.812 19.1947 66.636 19.5227 66.504C19.8547 66.372 20.2347 66.306 20.6627 66.306C21.1427 66.306 21.5807 66.382 21.9767 66.534C22.3727 66.686 22.7187 66.906 23.0147 67.194L22.7327 67.746ZM25.646 66.162V71.364H25.922C26.002 71.364 26.068 71.354 26.12 71.334C26.172 71.31 26.23 71.264 26.294 71.196L28.214 69.138C28.274 69.074 28.334 69.022 28.394 68.982C28.454 68.942 28.534 68.922 28.634 68.922H29.606L27.368 71.304C27.312 71.372 27.256 71.432 27.2 71.484C27.148 71.536 27.088 71.582 27.02 71.622C27.092 71.67 27.156 71.726 27.212 71.79C27.272 71.85 27.328 71.92 27.38 72L29.756 75H28.796C28.708 75 28.632 74.984 28.568 74.952C28.508 74.916 28.45 74.862 28.394 74.79L26.396 72.3C26.336 72.216 26.276 72.162 26.216 72.138C26.156 72.11 26.066 72.096 25.946 72.096H25.646V75H24.572V66.162H25.646ZM32.029 68.922V75H30.961V68.922H32.029ZM32.269 67.014C32.269 67.118 32.247 67.216 32.203 67.308C32.163 67.396 32.107 67.476 32.035 67.548C31.967 67.616 31.887 67.67 31.795 67.71C31.703 67.75 31.605 67.77 31.501 67.77C31.397 67.77 31.299 67.75 31.207 67.71C31.119 67.67 31.039 67.616 30.967 67.548C30.899 67.476 30.845 67.396 30.805 67.308C30.765 67.216 30.745 67.118 30.745 67.014C30.745 66.91 30.765 66.812 30.805 66.72C30.845 66.624 30.899 66.542 30.967 66.474C31.039 66.402 31.119 66.346 31.207 66.306C31.299 66.266 31.397 66.246 31.501 66.246C31.605 66.246 31.703 66.266 31.795 66.306C31.887 66.346 31.967 66.402 32.035 66.474C32.107 66.542 32.163 66.624 32.203 66.72C32.247 66.812 32.269 66.91 32.269 67.014ZM33.9233 75V68.922H34.5593C34.7113 68.922 34.8073 68.996 34.8473 69.144L34.9313 69.804C35.1953 69.512 35.4893 69.276 35.8133 69.096C36.1413 68.916 36.5193 68.826 36.9473 68.826C37.2793 68.826 37.5713 68.882 37.8233 68.994C38.0793 69.102 38.2913 69.258 38.4593 69.462C38.6313 69.662 38.7613 69.904 38.8493 70.188C38.9373 70.472 38.9813 70.786 38.9813 71.13V75H37.9133V71.13C37.9133 70.67 37.8073 70.314 37.5953 70.062C37.3873 69.806 37.0673 69.678 36.6353 69.678C36.3193 69.678 36.0233 69.754 35.7473 69.906C35.4753 70.058 35.2233 70.264 34.9913 70.524V75H33.9233Z" fill="#25282B"/>
<g clip-path="url(#clip0_10_1479)">
<path d="M38.4113 30.8076L25.1624 17.5587C23.0874 15.484 19.6842 15.4813 17.5699 17.5587C15.4767 19.6518 15.4767 23.0577 17.5699 25.1509L30.8188 38.3998C31.8654 39.4464 33.24 39.9696 34.6149 39.9696C35.9895 39.9696 37.3644 39.4464 38.4113 38.4001C40.5041 36.3069 40.5041 32.9007 38.4113 30.8076ZM37.1252 37.1137C35.7409 38.4971 33.4889 38.4971 32.1049 37.1137L18.8563 23.8648C17.4722 22.4808 17.4722 20.2285 18.8505 18.8502C19.5512 18.1617 20.4662 17.8176 21.3775 17.8176C22.2862 17.8176 23.1911 18.1599 23.8763 18.8445L37.1252 32.0934C38.5089 33.4777 38.5089 35.7297 37.1252 37.1137Z" fill="white"/>
<path d="M38.411 17.5878C37.4035 16.5803 36.055 16.0252 34.6149 16.0252C33.1747 16.0252 31.8262 16.58 30.8187 17.5878L17.5699 30.8367C15.4767 32.9299 15.4767 36.3358 17.5699 38.4289C18.6165 39.4755 19.991 39.9991 21.366 39.9991C22.7409 39.9991 24.1155 39.4758 25.1618 38.4289L38.441 25.1497C39.4524 24.1386 40.0063 22.7928 39.9999 21.3603C39.9939 19.9283 39.4275 18.5865 38.411 17.5878ZM37.1552 23.8636L23.876 37.1428C22.4916 38.5262 20.2397 38.5268 18.8559 37.1428C17.4722 35.7585 17.4722 33.5068 18.8559 32.1228L32.1049 18.8739C32.7961 18.1826 33.7041 17.8367 34.6127 17.8367C35.5235 17.8367 36.4352 18.1841 37.1307 18.8796C37.804 19.5415 38.1769 20.4253 38.1812 21.3681C38.1851 22.3116 37.8207 23.1978 37.1552 23.8636Z" fill="white"/>
<path d="M26.2471 27.4476C25.8833 27.0838 25.2466 27.0838 24.8828 27.4476C24.519 27.8114 24.519 28.4482 24.8828 28.812C25.2466 29.1758 25.8833 29.1758 26.2471 28.812C26.6413 28.4178 26.6413 27.8114 26.2471 27.4476Z" fill="white"/>
<path d="M26.352 27.338C25.9315 26.9196 25.1954 26.92 24.7755 27.3401C24.355 27.7609 24.355 28.4986 24.7755 28.9191C24.9859 29.1292 25.2754 29.2344 25.565 29.2344C25.8545 29.2344 26.144 29.1295 26.3542 28.9191C26.5795 28.6938 26.7001 28.4016 26.694 28.0966C26.6883 27.8065 26.5667 27.5372 26.352 27.338ZM26.1401 28.7048C25.8339 29.0107 25.2964 29.011 24.9902 28.7048C24.684 28.3986 24.684 27.861 24.9902 27.5548C25.1433 27.4017 25.354 27.3253 25.565 27.3253C25.776 27.3253 25.987 27.4017 26.1401 27.5548L26.1444 27.5591C26.2993 27.7019 26.3869 27.895 26.3912 28.103C26.3957 28.3246 26.3066 28.5383 26.1401 28.7048Z" fill="white"/>
<path d="M28.5513 29.7517C28.1875 29.3879 27.5508 29.3879 27.187 29.7517C26.8232 30.1155 26.8232 30.7522 27.187 31.116C27.5508 31.4798 28.1875 31.4798 28.5513 31.116C28.9454 30.7521 28.9454 30.1155 28.5513 29.7517Z" fill="white"/>
<path d="M28.6565 29.6422C28.4549 29.4418 28.1681 29.327 27.8691 29.327C27.569 29.327 27.2813 29.4425 27.0797 29.6444C26.878 29.8463 26.7625 30.1337 26.7625 30.4339C26.7625 30.734 26.8778 31.0217 27.0797 31.2233C27.2816 31.425 27.5693 31.5408 27.8691 31.5408C28.169 31.5408 28.457 31.425 28.6541 31.227C28.873 31.0251 28.9985 30.7358 28.9985 30.4336C28.9985 30.1325 28.8739 29.8441 28.6565 29.6422ZM28.4442 31.0087C28.1381 31.3148 27.6008 31.3148 27.2943 31.0087C27.1491 30.8634 27.066 30.654 27.066 30.4338C27.066 30.2137 27.1491 30.0042 27.2943 29.859C27.4474 29.7059 27.6581 29.6292 27.8691 29.6292C28.0802 29.6292 28.2912 29.7058 28.4442 29.8587L28.4488 29.8629C28.6052 30.0079 28.6953 30.2161 28.6953 30.4338C28.6953 30.6515 28.6053 30.8598 28.4442 31.0087Z" fill="white"/>
<path d="M28.8241 24.8706C28.4603 24.5068 27.8236 24.5068 27.4598 24.8706C27.096 25.2344 27.096 25.8711 27.4598 26.2349C27.8236 26.5987 28.4603 26.5987 28.8241 26.2349C29.1879 25.8711 29.188 25.2344 28.8241 24.8706Z" fill="white"/>
<path d="M28.9315 24.7631C28.511 24.3426 27.773 24.3426 27.3525 24.7631C26.932 25.1837 26.932 25.9213 27.3525 26.3418C27.5626 26.5522 27.8522 26.6574 28.142 26.6574C28.4318 26.6574 28.7214 26.5522 28.9315 26.3418C29.3517 25.9213 29.3517 25.1837 28.9315 24.7631ZM28.7168 26.1278C28.4261 26.4182 27.8573 26.4182 27.5669 26.1278C27.2607 25.8216 27.2607 25.284 27.5669 24.9778C27.72 24.8247 27.931 24.7483 28.142 24.7483C28.353 24.7483 28.564 24.8247 28.7168 24.9778C29.023 25.2843 29.023 25.8215 28.7168 26.1278Z" fill="white"/>
<path d="M31.1283 27.1746C30.7645 26.8108 30.1278 26.8108 29.764 27.1746C29.4002 27.5384 29.4002 28.1751 29.764 28.5389C30.1278 28.9027 30.7645 28.9027 31.1283 28.5389C31.5224 28.1751 31.5224 27.5687 31.1283 27.1746Z" fill="white"/>
<path d="M31.2357 27.0674C31.0338 26.8658 30.7463 26.75 30.4462 26.75C30.146 26.75 29.8583 26.8655 29.6567 27.0674C29.4551 27.2694 29.3393 27.5568 29.3393 27.8569C29.3393 28.1571 29.4548 28.4448 29.6567 28.6464C29.8586 28.848 30.1463 28.9638 30.4462 28.9638C30.746 28.9638 31.034 28.848 31.2311 28.65C31.4473 28.4505 31.5695 28.1804 31.5755 27.8893C31.5816 27.5847 31.4609 27.2927 31.2357 27.0674ZM31.0213 28.4317C30.7151 28.7379 30.1775 28.7379 29.8713 28.4317C29.7261 28.2865 29.6427 28.077 29.6427 27.8569C29.6427 27.6368 29.7261 27.4273 29.8713 27.2821C30.0242 27.129 30.2355 27.0522 30.4462 27.0522C30.6569 27.0522 30.8682 27.1289 31.0213 27.2817C31.1877 27.4479 31.2769 27.6616 31.2723 27.8833C31.2681 28.0913 31.1805 28.2847 31.0213 28.4317Z" fill="white"/>
</g>
<mask id="mask0_10_1479" style="mask-type:alpha" maskUnits="userSpaceOnUse" x="0" y="0" width="56" height="56">
<rect width="56" height="56" rx="8" fill="#4485FD"/>
</mask>
<g mask="url(#mask0_10_1479)">
<circle r="19" fill="#FF71C6"/>
</g>
<defs>
<clipPath id="clip0_10_1479">
<rect width="24" height="24" fill="white" transform="translate(16 16)"/>
</clipPath>
</defs>
</svg>
